solid v3d.csg
  facet normal -1.0 0.0 0.0
    outer loop
      vertex -0.5 -0.5 -0.5
      vertex -0.5 -0.5 0.5
      vertex -0.5 0.5 0.5
    endloop
  endfacet
  facet normal -1.0 0.0 0.0
    outer loop
      vertex -0.5 -0.5 -0.5
      vertex -0.5 0.5 0.5
      vertex -0.5 0.5 -0.5
    endloop
  endfacet
  facet normal -1.0 0.0 0.0
    outer loop
      vertex -0.5 0.5 -0.5
      vertex -0.5 0.5 0.5
      vertex -0.5 1.5 0.5
    endloop
  endfacet
  facet normal -1.0 0.0 0.0
    outer loop
      vertex -0.5 0.5 -0.5
      vertex -0.5 1.5 0.5
      vertex -0.5 1.5 -0.5
    endloop
  endfacet
  facet normal -1.0 0.0 0.0
    outer loop
      vertex -0.5 1.5 -0.5
      vertex -0.5 1.5 0.5
      vertex -0.5 2.5 0.5
    endloop
  endfacet
  facet normal -1.0 0.0 0.0
    outer loop
      vertex -0.5 1.5 -0.5
      vertex -0.5 2.5 0.5
      vertex -0.5 2.5 -0.5
    endloop
  endfacet
  facet normal -1.0 0.0 0.0
    outer loop
      vertex -0.5 2.5 -0.5
      vertex -0.5 2.5 0.5
      vertex -0.5 3.5 0.5
    endloop
  endfacet
  facet normal -1.0 0.0 0.0
    outer loop
      vertex -0.5 2.5 -0.5
      vertex -0.5 3.5 0.5
      vertex -0.5 3.5 -0.5
    endloop
  endfacet
  facet normal -1.0 0.0 0.0
    outer loop
      vertex -0.5 3.5 -0.5
      vertex -0.5 3.5 0.5
      vertex -0.5 4.5 0.5
    endloop
  endfacet
  facet normal -1.0 0.0 0.0
    outer loop
      vertex -0.5 3.5 -0.5
      vertex -0.5 4.5 0.5
      vertex -0.5 4.5 -0.5
    endloop
  endfacet
  facet normal -1.0 0.0 0.0
    outer loop
      vertex -0.5 4.5 -0.5
      vertex -0.5 4.5 0.5
      vertex -0.5 5.5 0.5
    endloop
  endfacet
  facet normal -1.0 0.0 0.0
    outer loop
      vertex -0.5 4.5 -0.5
      vertex -0.5 5.5 0.5
      vertex -0.5 5.5 -0.5
    endloop
  endfacet
  facet normal -1.0 0.0 0.0
    outer loop
      vertex -0.5 5.5 -0.5
      vertex -0.5 5.5 0.5
      vertex -0.5 6.5 0.5
    endloop
  endfacet
  facet normal -1.0 0.0 0.0
    outer loop
      vertex -0.5 5.5 -0.5
      vertex -0.5 6.5 0.5
      vertex -0.5 6.5 -0.5
    endloop
  endfacet
  facet normal -1.0 0.0 0.0
    outer loop
      vertex -0.5 6.5 -0.5
      vertex -0.5 6.5 0.5
      vertex -0.5 7.5 0.5
    endloop
  endfacet
  facet normal -1.0 0.0 0.0
    outer loop
      vertex -0.5 6.5 -0.5
      vertex -0.5 7.5 0.5
      vertex -0.5 7.5 -0.5
    endloop
  endfacet
  facet normal -1.0 0.0 0.0
    outer loop
      vertex -0.5 7.5 -0.5
      vertex -0.5 7.5 0.5
      vertex -0.5 8.5 0.5
    endloop
  endfacet
  facet normal -1.0 0.0 0.0
    outer loop
      vertex -0.5 7.5 -0.5
      vertex -0.5 8.5 0.5
      vertex -0.5 8.5 -0.5
    endloop
  endfacet
  facet normal -1.0 0.0 0.0
    outer loop
      vertex -0.5 8.5 -0.5
      vertex -0.5 8.5 0.5
      vertex -0.5 9.5 0.5
    endloop
  endfacet
  facet normal -1.0 0.0 0.0
    outer loop
      vertex -0.5 8.5 -0.5
      vertex -0.5 9.5 0.5
      vertex -0.5 9.5 -0.5
    endloop
  endfacet
  facet normal -1.0 0.0 0.0
    outer loop
      vertex -0.5 9.5 -0.5
      vertex -0.5 9.5 0.5
      vertex -0.5 10.5 0.5
    endloop
  endfacet
  facet normal -1.0 0.0 0.0
    outer loop
      vertex -0.5 9.5 -0.5
      vertex -0.5 10.5 0.5
      vertex -0.5 10.5 -0.5
    endloop
  endfacet
  facet normal -1.0 0.0 0.0
    outer loop
      vertex -0.5 10.5 -0.5
      vertex -0.5 10.5 0.5
      vertex -0.5 11.5 0.5
    endloop
  endfacet
  facet normal -1.0 0.0 0.0
    outer loop
      vertex -0.5 10.5 -0.5
      vertex -0.5 11.5 0.5
      vertex -0.5 11.5 -0.5
    endloop
  endfacet
  facet normal -1.0 0.0 0.0
    outer loop
      vertex -0.5 11.5 -0.5
      vertex -0.5 11.5 0.5
      vertex -0.5 12.5 0.5
    endloop
  endfacet
  facet normal -1.0 0.0 0.0
    outer loop
      vertex -0.5 11.5 -0.5
      vertex -0.5 12.5 0.5
      vertex -0.5 12.5 -0.5
    endloop
  endfacet
  facet normal -1.0 0.0 0.0
    outer loop
      vertex -0.5 12.5 -0.5
      vertex -0.5 12.5 0.5
      vertex -0.5 13.5 0.5
    endloop
  endfacet
  facet normal -1.0 0.0 0.0
    outer loop
      vertex -0.5 12.5 -0.5
      vertex -0.5 13.5 0.5
      vertex -0.5 13.5 -0.5
    endloop
  endfacet
  facet normal -1.0 0.0 0.0
    outer loop
      vertex -0.5 13.5 -0.5
      vertex -0.5 13.5 0.5
      vertex -0.5 14.5 0.5
    endloop
  endfacet
  facet normal -1.0 0.0 0.0
    outer loop
      vertex -0.5 13.5 -0.5
      vertex -0.5 14.5 0.5
      vertex -0.5 14.5 -0.5
    endloop
  endfacet
  facet normal -1.0 0.0 0.0
    outer loop
      vertex -0.5 14.5 -0.5
      vertex -0.5 14.5 0.5
      vertex -0.5 15.5 0.5
    endloop
  endfacet
  facet normal -1.0 0.0 0.0
    outer loop
      vertex -0.5 14.5 -0.5
      vertex -0.5 15.5 0.5
      vertex -0.5 15.5 -0.5
    endloop
  endfacet
  facet normal -1.0 0.0 0.0
    outer loop
      vertex -0.5 15.5 -0.5
      vertex -0.5 15.5 0.5
      vertex -0.5 16.5 0.5
    endloop
  endfacet
  facet normal -1.0 0.0 0.0
    outer loop
      vertex -0.5 15.5 -0.5
      vertex -0.5 16.5 0.5
      vertex -0.5 16.5 -0.5
    endloop
  endfacet
  facet normal -1.0 0.0 0.0
    outer loop
      vertex -0.5 16.5 -0.5
      vertex -0.5 16.5 0.5
      vertex -0.5 17.5 0.5
    endloop
  endfacet
  facet normal -1.0 0.0 0.0
    outer loop
      vertex -0.5 16.5 -0.5
      vertex -0.5 17.5 0.5
      vertex -0.5 17.5 -0.5
    endloop
  endfacet
  facet normal -1.0 0.0 0.0
    outer loop
      vertex -0.5 17.5 -0.5
      vertex -0.5 17.5 0.5
      vertex -0.5 18.5 0.5
    endloop
  endfacet
  facet normal -1.0 0.0 0.0
    outer loop
      vertex -0.5 17.5 -0.5
      vertex -0.5 18.5 0.5
      vertex -0.5 18.5 -0.5
    endloop
  endfacet
  facet normal -1.0 0.0 0.0
    outer loop
      vertex -0.5 -0.5 0.5
      vertex -0.5 -0.5 1.5
      vertex -0.5 0.5 1.5
    endloop
  endfacet
  facet normal -1.0 0.0 0.0
    outer loop
      vertex -0.5 -0.5 0.5
      vertex -0.5 0.5 1.5
      vertex -0.5 0.5 0.5
    endloop
  endfacet
  facet normal -1.0 0.0 0.0
    outer loop
      vertex -0.5 0.5 0.5
      vertex -0.5 0.5 1.5
      vertex -0.5 1.5 1.5
    endloop
  endfacet
  facet normal -1.0 0.0 0.0
    outer loop
      vertex -0.5 0.5 0.5
      vertex -0.5 1.5 1.5
      vertex -0.5 1.5 0.5
    endloop
  endfacet
  facet normal -1.0 0.0 0.0
    outer loop
      vertex -0.5 1.5 0.5
      vertex -0.5 1.5 1.5
      vertex -0.5 2.5 1.5
    endloop
  endfacet
  facet normal -1.0 0.0 0.0
    outer loop
      vertex -0.5 1.5 0.5
      vertex -0.5 2.5 1.5
      vertex -0.5 2.5 0.5
    endloop
  endfacet
  facet normal -1.0 0.0 0.0
    outer loop
      vertex -0.5 3.5 0.5
      vertex -0.5 3.5 1.5
      vertex -0.5 4.5 1.5
    endloop
  endfacet
  facet normal -1.0 0.0 0.0
    outer loop
      vertex -0.5 3.5 0.5
      vertex -0.5 4.5 1.5
      vertex -0.5 4.5 0.5
    endloop
  endfacet
  facet normal -1.0 0.0 0.0
    outer loop
      vertex -0.5 4.5 0.5
      vertex -0.5 4.5 1.5
      vertex -0.5 5.5 1.5
    endloop
  endfacet
  facet normal -1.0 0.0 0.0
    outer loop
      vertex -0.5 4.5 0.5
      vertex -0.5 5.5 1.5
      vertex -0.5 5.5 0.5
    endloop
  endfacet
  facet normal -1.0 0.0 0.0
    outer loop
      vertex -0.5 5.5 0.5
      vertex -0.5 5.5 1.5
      vertex -0.5 6.5 1.5
    endloop
  endfacet
  facet normal -1.0 0.0 0.0
    outer loop
      vertex -0.5 5.5 0.5
      vertex -0.5 6.5 1.5
      vertex -0.5 6.5 0.5
    endloop
  endfacet
  facet normal -1.0 0.0 0.0
    outer loop
      vertex -0.5 7.5 0.5
      vertex -0.5 7.5 1.5
      vertex -0.5 8.5 1.5
    endloop
  endfacet
  facet normal -1.0 0.0 0.0
    outer loop
      vertex -0.5 7.5 0.5
      vertex -0.5 8.5 1.5
      vertex -0.5 8.5 0.5
    endloop
  endfacet
  facet normal -1.0 0.0 0.0
    outer loop
      vertex -0.5 8.5 0.5
      vertex -0.5 8.5 1.5
      vertex -0.5 9.5 1.5
    endloop
  endfacet
  facet normal -1.0 0.0 0.0
    outer loop
      vertex -0.5 8.5 0.5
      vertex -0.5 9.5 1.5
      vertex -0.5 9.5 0.5
    endloop
  endfacet
  facet normal -1.0 0.0 0.0
    outer loop
      vertex -0.5 9.5 0.5
      vertex -0.5 9.5 1.5
      vertex -0.5 10.5 1.5
    endloop
  endfacet
  facet normal -1.0 0.0 0.0
    outer loop
      vertex -0.5 9.5 0.5
      vertex -0.5 10.5 1.5
      vertex -0.5 10.5 0.5
    endloop
  endfacet
  facet normal -1.0 0.0 0.0
    outer loop
      vertex -0.5 11.5 0.5
      vertex -0.5 11.5 1.5
      vertex -0.5 12.5 1.5
    endloop
  endfacet
  facet normal -1.0 0.0 0.0
    outer loop
      vertex -0.5 11.5 0.5
      vertex -0.5 12.5 1.5
      vertex -0.5 12.5 0.5
    endloop
  endfacet
  facet normal -1.0 0.0 0.0
    outer loop
      vertex -0.5 12.5 0.5
      vertex -0.5 12.5 1.5
      vertex -0.5 13.5 1.5
    endloop
  endfacet
  facet normal -1.0 0.0 0.0
    outer loop
      vertex -0.5 12.5 0.5
      vertex -0.5 13.5 1.5
      vertex -0.5 13.5 0.5
    endloop
  endfacet
  facet normal -1.0 0.0 0.0
    outer loop
      vertex -0.5 13.5 0.5
      vertex -0.5 13.5 1.5
      vertex -0.5 14.5 1.5
    endloop
  endfacet
  facet normal -1.0 0.0 0.0
    outer loop
      vertex -0.5 13.5 0.5
      vertex -0.5 14.5 1.5
      vertex -0.5 14.5 0.5
    endloop
  endfacet
  facet normal -1.0 0.0 0.0
    outer loop
      vertex -0.5 15.5 0.5
      vertex -0.5 15.5 1.5
      vertex -0.5 16.5 1.5
    endloop
  endfacet
  facet normal -1.0 0.0 0.0
    outer loop
      vertex -0.5 15.5 0.5
      vertex -0.5 16.5 1.5
      vertex -0.5 16.5 0.5
    endloop
  endfacet
  facet normal -1.0 0.0 0.0
    outer loop
      vertex -0.5 16.5 0.5
      vertex -0.5 16.5 1.5
      vertex -0.5 17.5 1.5
    endloop
  endfacet
  facet normal -1.0 0.0 0.0
    outer loop
      vertex -0.5 16.5 0.5
      vertex -0.5 17.5 1.5
      vertex -0.5 17.5 0.5
    endloop
  endfacet
  facet normal -1.0 0.0 0.0
    outer loop
      vertex -0.5 17.5 0.5
      vertex -0.5 17.5 1.5
      vertex -0.5 18.5 1.5
    endloop
  endfacet
  facet normal -1.0 0.0 0.0
    outer loop
      vertex -0.5 17.5 0.5
      vertex -0.5 18.5 1.5
      vertex -0.5 18.5 0.5
    endloop
  endfacet
  facet normal -1.0 0.0 0.0
    outer loop
      vertex -0.5 0.5 1.5
      vertex -0.5 0.5 2.5
      vertex -0.5 1.5 2.5
    endloop
  endfacet
  facet normal -1.0 0.0 0.0
    outer loop
      vertex -0.5 0.5 1.5
      vertex -0.5 1.5 2.5
      vertex -0.5 1.5 1.5
    endloop
  endfacet
  facet normal -1.0 0.0 0.0
    outer loop
      vertex -0.5 4.5 1.5
      vertex -0.5 4.5 2.5
      vertex -0.5 5.5 2.5
    endloop
  endfacet
  facet normal -1.0 0.0 0.0
    outer loop
      vertex -0.5 4.5 1.5
      vertex -0.5 5.5 2.5
      vertex -0.5 5.5 1.5
    endloop
  endfacet
  facet normal -1.0 0.0 0.0
    outer loop
      vertex -0.5 8.5 1.5
      vertex -0.5 8.5 2.5
      vertex -0.5 9.5 2.5
    endloop
  endfacet
  facet normal -1.0 0.0 0.0
    outer loop
      vertex -0.5 8.5 1.5
      vertex -0.5 9.5 2.5
      vertex -0.5 9.5 1.5
    endloop
  endfacet
  facet normal -1.0 0.0 0.0
    outer loop
      vertex -0.5 12.5 1.5
      vertex -0.5 12.5 2.5
      vertex -0.5 13.5 2.5
    endloop
  endfacet
  facet normal -1.0 0.0 0.0
    outer loop
      vertex -0.5 12.5 1.5
      vertex -0.5 13.5 2.5
      vertex -0.5 13.5 1.5
    endloop
  endfacet
  facet normal -1.0 0.0 0.0
    outer loop
      vertex -0.5 16.5 1.5
      vertex -0.5 16.5 2.5
      vertex -0.5 17.5 2.5
    endloop
  endfacet
  facet normal -1.0 0.0 0.0
    outer loop
      vertex -0.5 16.5 1.5
      vertex -0.5 17.5 2.5
      vertex -0.5 17.5 1.5
    endloop
  endfacet
  facet normal -1.0 0.0 0.0
    outer loop
      vertex -0.5 0.5 2.5
      vertex -0.5 0.5 3.5
      vertex -0.5 1.5 3.5
    endloop
  endfacet
  facet normal -1.0 0.0 0.0
    outer loop
      vertex -0.5 0.5 2.5
      vertex -0.5 1.5 3.5
      vertex -0.5 1.5 2.5
    endloop
  endfacet
  facet normal -1.0 0.0 0.0
    outer loop
      vertex -0.5 4.5 2.5
      vertex -0.5 4.5 3.5
      vertex -0.5 5.5 3.5
    endloop
  endfacet
  facet normal -1.0 0.0 0.0
    outer loop
      vertex -0.5 4.5 2.5
      vertex -0.5 5.5 3.5
      vertex -0.5 5.5 2.5
    endloop
  endfacet
  facet normal -1.0 0.0 0.0
    outer loop
      vertex -0.5 8.5 2.5
      vertex -0.5 8.5 3.5
      vertex -0.5 9.5 3.5
    endloop
  endfacet
  facet normal -1.0 0.0 0.0
    outer loop
      vertex -0.5 8.5 2.5
      vertex -0.5 9.5 3.5
      vertex -0.5 9.5 2.5
    endloop
  endfacet
  facet normal -1.0 0.0 0.0
    outer loop
      vertex -0.5 12.5 2.5
      vertex -0.5 12.5 3.5
      vertex -0.5 13.5 3.5
    endloop
  endfacet
  facet normal -1.0 0.0 0.0
    outer loop
      vertex -0.5 12.5 2.5
      vertex -0.5 13.5 3.5
      vertex -0.5 13.5 2.5
    endloop
  endfacet
  facet normal -1.0 0.0 0.0
    outer loop
      vertex -0.5 16.5 2.5
      vertex -0.5 16.5 3.5
      vertex -0.5 17.5 3.5
    endloop
  endfacet
  facet normal -1.0 0.0 0.0
    outer loop
      vertex -0.5 16.5 2.5
      vertex -0.5 17.5 3.5
      vertex -0.5 17.5 2.5
    endloop
  endfacet
  facet normal 1.0 0.0 0.0
    outer loop
      vertex 2.5 -0.5 -0.5
      vertex 2.5 0.5 -0.5
      vertex 2.5 0.5 0.5
    endloop
  endfacet
  facet normal 1.0 0.0 0.0
    outer loop
      vertex 2.5 -0.5 -0.5
      vertex 2.5 0.5 0.5
      vertex 2.5 -0.5 0.5
    endloop
  endfacet
  facet normal 1.0 0.0 0.0
    outer loop
      vertex 2.5 0.5 -0.5
      vertex 2.5 1.5 -0.5
      vertex 2.5 1.5 0.5
    endloop
  endfacet
  facet normal 1.0 0.0 0.0
    outer loop
      vertex 2.5 0.5 -0.5
      vertex 2.5 1.5 0.5
      vertex 2.5 0.5 0.5
    endloop
  endfacet
  facet normal 1.0 0.0 0.0
    outer loop
      vertex 2.5 1.5 -0.5
      vertex 2.5 2.5 -0.5
      vertex 2.5 2.5 0.5
    endloop
  endfacet
  facet normal 1.0 0.0 0.0
    outer loop
      vertex 2.5 1.5 -0.5
      vertex 2.5 2.5 0.5
      vertex 2.5 1.5 0.5
    endloop
  endfacet
  facet normal 1.0 0.0 0.0
    outer loop
      vertex 2.5 2.5 -0.5
      vertex 2.5 3.5 -0.5
      vertex 2.5 3.5 0.5
    endloop
  endfacet
  facet normal 1.0 0.0 0.0
    outer loop
      vertex 2.5 2.5 -0.5
      vertex 2.5 3.5 0.5
      vertex 2.5 2.5 0.5
    endloop
  endfacet
  facet normal 1.0 0.0 0.0
    outer loop
      vertex 2.5 3.5 -0.5
      vertex 2.5 4.5 -0.5
      vertex 2.5 4.5 0.5
    endloop
  endfacet
  facet normal 1.0 0.0 0.0
    outer loop
      vertex 2.5 3.5 -0.5
      vertex 2.5 4.5 0.5
      vertex 2.5 3.5 0.5
    endloop
  endfacet
  facet normal 1.0 0.0 0.0
    outer loop
      vertex 2.5 4.5 -0.5
      vertex 2.5 5.5 -0.5
      vertex 2.5 5.5 0.5
    endloop
  endfacet
  facet normal 1.0 0.0 0.0
    outer loop
      vertex 2.5 4.5 -0.5
      vertex 2.5 5.5 0.5
      vertex 2.5 4.5 0.5
    endloop
  endfacet
  facet normal 1.0 0.0 0.0
    outer loop
      vertex 2.5 5.5 -0.5
      vertex 2.5 6.5 -0.5
      vertex 2.5 6.5 0.5
    endloop
  endfacet
  facet normal 1.0 0.0 0.0
    outer loop
      vertex 2.5 5.5 -0.5
      vertex 2.5 6.5 0.5
      vertex 2.5 5.5 0.5
    endloop
  endfacet
  facet normal 1.0 0.0 0.0
    outer loop
      vertex 2.5 6.5 -0.5
      vertex 2.5 7.5 -0.5
      vertex 2.5 7.5 0.5
    endloop
  endfacet
  facet normal 1.0 0.0 0.0
    outer loop
      vertex 2.5 6.5 -0.5
      vertex 2.5 7.5 0.5
      vertex 2.5 6.5 0.5
    endloop
  endfacet
  facet normal 1.0 0.0 0.0
    outer loop
      vertex 2.5 7.5 -0.5
      vertex 2.5 8.5 -0.5
      vertex 2.5 8.5 0.5
    endloop
  endfacet
  facet normal 1.0 0.0 0.0
    outer loop
      vertex 2.5 7.5 -0.5
      vertex 2.5 8.5 0.5
      vertex 2.5 7.5 0.5
    endloop
  endfacet
  facet normal 1.0 0.0 0.0
    outer loop
      vertex 2.5 8.5 -0.5
      vertex 2.5 9.5 -0.5
      vertex 2.5 9.5 0.5
    endloop
  endfacet
  facet normal 1.0 0.0 0.0
    outer loop
      vertex 2.5 8.5 -0.5
      vertex 2.5 9.5 0.5
      vertex 2.5 8.5 0.5
    endloop
  endfacet
  facet normal 1.0 0.0 0.0
    outer loop
      vertex 2.5 9.5 -0.5
      vertex 2.5 10.5 -0.5
      vertex 2.5 10.5 0.5
    endloop
  endfacet
  facet normal 1.0 0.0 0.0
    outer loop
      vertex 2.5 9.5 -0.5
      vertex 2.5 10.5 0.5
      vertex 2.5 9.5 0.5
    endloop
  endfacet
  facet normal 1.0 0.0 0.0
    outer loop
      vertex 2.5 10.5 -0.5
      vertex 2.5 11.5 -0.5
      vertex 2.5 11.5 0.5
    endloop
  endfacet
  facet normal 1.0 0.0 0.0
    outer loop
      vertex 2.5 10.5 -0.5
      vertex 2.5 11.5 0.5
      vertex 2.5 10.5 0.5
    endloop
  endfacet
  facet normal 1.0 0.0 0.0
    outer loop
      vertex 2.5 11.5 -0.5
      vertex 2.5 12.5 -0.5
      vertex 2.5 12.5 0.5
    endloop
  endfacet
  facet normal 1.0 0.0 0.0
    outer loop
      vertex 2.5 11.5 -0.5
      vertex 2.5 12.5 0.5
      vertex 2.5 11.5 0.5
    endloop
  endfacet
  facet normal 1.0 0.0 0.0
    outer loop
      vertex 2.5 12.5 -0.5
      vertex 2.5 13.5 -0.5
      vertex 2.5 13.5 0.5
    endloop
  endfacet
  facet normal 1.0 0.0 0.0
    outer loop
      vertex 2.5 12.5 -0.5
      vertex 2.5 13.5 0.5
      vertex 2.5 12.5 0.5
    endloop
  endfacet
  facet normal 1.0 0.0 0.0
    outer loop
      vertex 2.5 13.5 -0.5
      vertex 2.5 14.5 -0.5
      vertex 2.5 14.5 0.5
    endloop
  endfacet
  facet normal 1.0 0.0 0.0
    outer loop
      vertex 2.5 13.5 -0.5
      vertex 2.5 14.5 0.5
      vertex 2.5 13.5 0.5
    endloop
  endfacet
  facet normal 1.0 0.0 0.0
    outer loop
      vertex 2.5 14.5 -0.5
      vertex 2.5 15.5 -0.5
      vertex 2.5 15.5 0.5
    endloop
  endfacet
  facet normal 1.0 0.0 0.0
    outer loop
      vertex 2.5 14.5 -0.5
      vertex 2.5 15.5 0.5
      vertex 2.5 14.5 0.5
    endloop
  endfacet
  facet normal 1.0 0.0 0.0
    outer loop
      vertex 2.5 15.5 -0.5
      vertex 2.5 16.5 -0.5
      vertex 2.5 16.5 0.5
    endloop
  endfacet
  facet normal 1.0 0.0 0.0
    outer loop
      vertex 2.5 15.5 -0.5
      vertex 2.5 16.5 0.5
      vertex 2.5 15.5 0.5
    endloop
  endfacet
  facet normal 1.0 0.0 0.0
    outer loop
      vertex 2.5 16.5 -0.5
      vertex 2.5 17.5 -0.5
      vertex 2.5 17.5 0.5
    endloop
  endfacet
  facet normal 1.0 0.0 0.0
    outer loop
      vertex 2.5 16.5 -0.5
      vertex 2.5 17.5 0.5
      vertex 2.5 16.5 0.5
    endloop
  endfacet
  facet normal 1.0 0.0 0.0
    outer loop
      vertex 2.5 17.5 -0.5
      vertex 2.5 18.5 -0.5
      vertex 2.5 18.5 0.5
    endloop
  endfacet
  facet normal 1.0 0.0 0.0
    outer loop
      vertex 2.5 17.5 -0.5
      vertex 2.5 18.5 0.5
      vertex 2.5 17.5 0.5
    endloop
  endfacet
  facet normal 1.0 0.0 0.0
    outer loop
      vertex 2.5 -0.5 0.5
      vertex 2.5 0.5 0.5
      vertex 2.5 0.5 1.5
    endloop
  endfacet
  facet normal 1.0 0.0 0.0
    outer loop
      vertex 2.5 -0.5 0.5
      vertex 2.5 0.5 1.5
      vertex 2.5 -0.5 1.5
    endloop
  endfacet
  facet normal 1.0 0.0 0.0
    outer loop
      vertex 2.5 0.5 0.5
      vertex 2.5 1.5 0.5
      vertex 2.5 1.5 1.5
    endloop
  endfacet
  facet normal 1.0 0.0 0.0
    outer loop
      vertex 2.5 0.5 0.5
      vertex 2.5 1.5 1.5
      vertex 2.5 0.5 1.5
    endloop
  endfacet
  facet normal 1.0 0.0 0.0
    outer loop
      vertex 2.5 1.5 0.5
      vertex 2.5 2.5 0.5
      vertex 2.5 2.5 1.5
    endloop
  endfacet
  facet normal 1.0 0.0 0.0
    outer loop
      vertex 2.5 1.5 0.5
      vertex 2.5 2.5 1.5
      vertex 2.5 1.5 1.5
    endloop
  endfacet
  facet normal 1.0 0.0 0.0
    outer loop
      vertex 2.5 3.5 0.5
      vertex 2.5 4.5 0.5
      vertex 2.5 4.5 1.5
    endloop
  endfacet
  facet normal 1.0 0.0 0.0
    outer loop
      vertex 2.5 3.5 0.5
      vertex 2.5 4.5 1.5
      vertex 2.5 3.5 1.5
    endloop
  endfacet
  facet normal 1.0 0.0 0.0
    outer loop
      vertex 2.5 4.5 0.5
      vertex 2.5 5.5 0.5
      vertex 2.5 5.5 1.5
    endloop
  endfacet
  facet normal 1.0 0.0 0.0
    outer loop
      vertex 2.5 4.5 0.5
      vertex 2.5 5.5 1.5
      vertex 2.5 4.5 1.5
    endloop
  endfacet
  facet normal 1.0 0.0 0.0
    outer loop
      vertex 2.5 5.5 0.5
      vertex 2.5 6.5 0.5
      vertex 2.5 6.5 1.5
    endloop
  endfacet
  facet normal 1.0 0.0 0.0
    outer loop
      vertex 2.5 5.5 0.5
      vertex 2.5 6.5 1.5
      vertex 2.5 5.5 1.5
    endloop
  endfacet
  facet normal 1.0 0.0 0.0
    outer loop
      vertex 2.5 7.5 0.5
      vertex 2.5 8.5 0.5
      vertex 2.5 8.5 1.5
    endloop
  endfacet
  facet normal 1.0 0.0 0.0
    outer loop
      vertex 2.5 7.5 0.5
      vertex 2.5 8.5 1.5
      vertex 2.5 7.5 1.5
    endloop
  endfacet
  facet normal 1.0 0.0 0.0
    outer loop
      vertex 2.5 8.5 0.5
      vertex 2.5 9.5 0.5
      vertex 2.5 9.5 1.5
    endloop
  endfacet
  facet normal 1.0 0.0 0.0
    outer loop
      vertex 2.5 8.5 0.5
      vertex 2.5 9.5 1.5
      vertex 2.5 8.5 1.5
    endloop
  endfacet
  facet normal 1.0 0.0 0.0
    outer loop
      vertex 2.5 9.5 0.5
      vertex 2.5 10.5 0.5
      vertex 2.5 10.5 1.5
    endloop
  endfacet
  facet normal 1.0 0.0 0.0
    outer loop
      vertex 2.5 9.5 0.5
      vertex 2.5 10.5 1.5
      vertex 2.5 9.5 1.5
    endloop
  endfacet
  facet normal 1.0 0.0 0.0
    outer loop
      vertex 2.5 11.5 0.5
      vertex 2.5 12.5 0.5
      vertex 2.5 12.5 1.5
    endloop
  endfacet
  facet normal 1.0 0.0 0.0
    outer loop
      vertex 2.5 11.5 0.5
      vertex 2.5 12.5 1.5
      vertex 2.5 11.5 1.5
    endloop
  endfacet
  facet normal 1.0 0.0 0.0
    outer loop
      vertex 2.5 12.5 0.5
      vertex 2.5 13.5 0.5
      vertex 2.5 13.5 1.5
    endloop
  endfacet
  facet normal 1.0 0.0 0.0
    outer loop
      vertex 2.5 12.5 0.5
      vertex 2.5 13.5 1.5
      vertex 2.5 12.5 1.5
    endloop
  endfacet
  facet normal 1.0 0.0 0.0
    outer loop
      vertex 2.5 13.5 0.5
      vertex 2.5 14.5 0.5
      vertex 2.5 14.5 1.5
    endloop
  endfacet
  facet normal 1.0 0.0 0.0
    outer loop
      vertex 2.5 13.5 0.5
      vertex 2.5 14.5 1.5
      vertex 2.5 13.5 1.5
    endloop
  endfacet
  facet normal 1.0 0.0 0.0
    outer loop
      vertex 2.5 15.5 0.5
      vertex 2.5 16.5 0.5
      vertex 2.5 16.5 1.5
    endloop
  endfacet
  facet normal 1.0 0.0 0.0
    outer loop
      vertex 2.5 15.5 0.5
      vertex 2.5 16.5 1.5
      vertex 2.5 15.5 1.5
    endloop
  endfacet
  facet normal 1.0 0.0 0.0
    outer loop
      vertex 2.5 16.5 0.5
      vertex 2.5 17.5 0.5
      vertex 2.5 17.5 1.5
    endloop
  endfacet
  facet normal 1.0 0.0 0.0
    outer loop
      vertex 2.5 16.5 0.5
      vertex 2.5 17.5 1.5
      vertex 2.5 16.5 1.5
    endloop
  endfacet
  facet normal 1.0 0.0 0.0
    outer loop
      vertex 2.5 17.5 0.5
      vertex 2.5 18.5 0.5
      vertex 2.5 18.5 1.5
    endloop
  endfacet
  facet normal 1.0 0.0 0.0
    outer loop
      vertex 2.5 17.5 0.5
      vertex 2.5 18.5 1.5
      vertex 2.5 17.5 1.5
    endloop
  endfacet
  facet normal 1.0 0.0 0.0
    outer loop
      vertex 2.5 0.5 1.5
      vertex 2.5 1.5 1.5
      vertex 2.5 1.5 2.5
    endloop
  endfacet
  facet normal 1.0 0.0 0.0
    outer loop
      vertex 2.5 0.5 1.5
      vertex 2.5 1.5 2.5
      vertex 2.5 0.5 2.5
    endloop
  endfacet
  facet normal 1.0 0.0 0.0
    outer loop
      vertex 2.5 4.5 1.5
      vertex 2.5 5.5 1.5
      vertex 2.5 5.5 2.5
    endloop
  endfacet
  facet normal 1.0 0.0 0.0
    outer loop
      vertex 2.5 4.5 1.5
      vertex 2.5 5.5 2.5
      vertex 2.5 4.5 2.5
    endloop
  endfacet
  facet normal 1.0 0.0 0.0
    outer loop
      vertex 2.5 8.5 1.5
      vertex 2.5 9.5 1.5
      vertex 2.5 9.5 2.5
    endloop
  endfacet
  facet normal 1.0 0.0 0.0
    outer loop
      vertex 2.5 8.5 1.5
      vertex 2.5 9.5 2.5
      vertex 2.5 8.5 2.5
    endloop
  endfacet
  facet normal 1.0 0.0 0.0
    outer loop
      vertex 2.5 12.5 1.5
      vertex 2.5 13.5 1.5
      vertex 2.5 13.5 2.5
    endloop
  endfacet
  facet normal 1.0 0.0 0.0
    outer loop
      vertex 2.5 12.5 1.5
      vertex 2.5 13.5 2.5
      vertex 2.5 12.5 2.5
    endloop
  endfacet
  facet normal 1.0 0.0 0.0
    outer loop
      vertex 2.5 16.5 1.5
      vertex 2.5 17.5 1.5
      vertex 2.5 17.5 2.5
    endloop
  endfacet
  facet normal 1.0 0.0 0.0
    outer loop
      vertex 2.5 16.5 1.5
      vertex 2.5 17.5 2.5
      vertex 2.5 16.5 2.5
    endloop
  endfacet
  facet normal 1.0 0.0 0.0
    outer loop
      vertex 2.5 0.5 2.5
      vertex 2.5 1.5 2.5
      vertex 2.5 1.5 3.5
    endloop
  endfacet
  facet normal 1.0 0.0 0.0
    outer loop
      vertex 2.5 0.5 2.5
      vertex 2.5 1.5 3.5
      vertex 2.5 0.5 3.5
    endloop
  endfacet
  facet normal 1.0 0.0 0.0
    outer loop
      vertex 2.5 4.5 2.5
      vertex 2.5 5.5 2.5
      vertex 2.5 5.5 3.5
    endloop
  endfacet
  facet normal 1.0 0.0 0.0
    outer loop
      vertex 2.5 4.5 2.5
      vertex 2.5 5.5 3.5
      vertex 2.5 4.5 3.5
    endloop
  endfacet
  facet normal 1.0 0.0 0.0
    outer loop
      vertex 2.5 8.5 2.5
      vertex 2.5 9.5 2.5
      vertex 2.5 9.5 3.5
    endloop
  endfacet
  facet normal 1.0 0.0 0.0
    outer loop
      vertex 2.5 8.5 2.5
      vertex 2.5 9.5 3.5
      vertex 2.5 8.5 3.5
    endloop
  endfacet
  facet normal 1.0 0.0 0.0
    outer loop
      vertex 2.5 12.5 2.5
      vertex 2.5 13.5 2.5
      vertex 2.5 13.5 3.5
    endloop
  endfacet
  facet normal 1.0 0.0 0.0
    outer loop
      vertex 2.5 12.5 2.5
      vertex 2.5 13.5 3.5
      vertex 2.5 12.5 3.5
    endloop
  endfacet
  facet normal 1.0 0.0 0.0
    outer loop
      vertex 2.5 16.5 2.5
      vertex 2.5 17.5 2.5
      vertex 2.5 17.5 3.5
    endloop
  endfacet
  facet normal 1.0 0.0 0.0
    outer loop
      vertex 2.5 16.5 2.5
      vertex 2.5 17.5 3.5
      vertex 2.5 16.5 3.5
    endloop
  endfacet
  facet normal 0.0 -1.0 0.0
    outer loop
      vertex -0.5 -0.5 -0.5
      vertex 0.5 -0.5 -0.5
      vertex 0.5 -0.5 0.5
    endloop
  endfacet
  facet normal 0.0 -1.0 0.0
    outer loop
      vertex -0.5 -0.5 -0.5
      vertex 0.5 -0.5 0.5
      vertex -0.5 -0.5 0.5
    endloop
  endfacet
  facet normal 0.0 -1.0 0.0
    outer loop
      vertex -0.5 -0.5 0.5
      vertex 0.5 -0.5 0.5
      vertex 0.5 -0.5 1.5
    endloop
  endfacet
  facet normal 0.0 -1.0 0.0
    outer loop
      vertex -0.5 -0.5 0.5
      vertex 0.5 -0.5 1.5
      vertex -0.5 -0.5 1.5
    endloop
  endfacet
  facet normal 0.0 -1.0 0.0
    outer loop
      vertex 0.5 -0.5 -0.5
      vertex 1.5 -0.5 -0.5
      vertex 1.5 -0.5 0.5
    endloop
  endfacet
  facet normal 0.0 -1.0 0.0
    outer loop
      vertex 0.5 -0.5 -0.5
      vertex 1.5 -0.5 0.5
      vertex 0.5 -0.5 0.5
    endloop
  endfacet
  facet normal 0.0 -1.0 0.0
    outer loop
      vertex 0.5 -0.5 0.5
      vertex 1.5 -0.5 0.5
      vertex 1.5 -0.5 1.5
    endloop
  endfacet
  facet normal 0.0 -1.0 0.0
    outer loop
      vertex 0.5 -0.5 0.5
      vertex 1.5 -0.5 1.5
      vertex 0.5 -0.5 1.5
    endloop
  endfacet
  facet normal 0.0 -1.0 0.0
    outer loop
      vertex 1.5 -0.5 -0.5
      vertex 2.5 -0.5 -0.5
      vertex 2.5 -0.5 0.5
    endloop
  endfacet
  facet normal 0.0 -1.0 0.0
    outer loop
      vertex 1.5 -0.5 -0.5
      vertex 2.5 -0.5 0.5
      vertex 1.5 -0.5 0.5
    endloop
  endfacet
  facet normal 0.0 -1.0 0.0
    outer loop
      vertex 1.5 -0.5 0.5
      vertex 2.5 -0.5 0.5
      vertex 2.5 -0.5 1.5
    endloop
  endfacet
  facet normal 0.0 -1.0 0.0
    outer loop
      vertex 1.5 -0.5 0.5
      vertex 2.5 -0.5 1.5
      vertex 1.5 -0.5 1.5
    endloop
  endfacet
  facet normal 0.0 1.0 0.0
    outer loop
      vertex -0.5 18.5 -0.5
      vertex -0.5 18.5 0.5
      vertex 0.5 18.5 0.5
    endloop
  endfacet
  facet normal 0.0 1.0 0.0
    outer loop
      vertex -0.5 18.5 -0.5
      vertex 0.5 18.5 0.5
      vertex 0.5 18.5 -0.5
    endloop
  endfacet
  facet normal 0.0 1.0 0.0
    outer loop
      vertex -0.5 18.5 0.5
      vertex -0.5 18.5 1.5
      vertex 0.5 18.5 1.5
    endloop
  endfacet
  facet normal 0.0 1.0 0.0
    outer loop
      vertex -0.5 18.5 0.5
      vertex 0.5 18.5 1.5
      vertex 0.5 18.5 0.5
    endloop
  endfacet
  facet normal 0.0 1.0 0.0
    outer loop
      vertex 0.5 18.5 -0.5
      vertex 0.5 18.5 0.5
      vertex 1.5 18.5 0.5
    endloop
  endfacet
  facet normal 0.0 1.0 0.0
    outer loop
      vertex 0.5 18.5 -0.5
      vertex 1.5 18.5 0.5
      vertex 1.5 18.5 -0.5
    endloop
  endfacet
  facet normal 0.0 1.0 0.0
    outer loop
      vertex 0.5 18.5 0.5
      vertex 0.5 18.5 1.5
      vertex 1.5 18.5 1.5
    endloop
  endfacet
  facet normal 0.0 1.0 0.0
    outer loop
      vertex 0.5 18.5 0.5
      vertex 1.5 18.5 1.5
      vertex 1.5 18.5 0.5
    endloop
  endfacet
  facet normal 0.0 1.0 0.0
    outer loop
      vertex 1.5 18.5 -0.5
      vertex 1.5 18.5 0.5
      vertex 2.5 18.5 0.5
    endloop
  endfacet
  facet normal 0.0 1.0 0.0
    outer loop
      vertex 1.5 18.5 -0.5
      vertex 2.5 18.5 0.5
      vertex 2.5 18.5 -0.5
    endloop
  endfacet
  facet normal 0.0 1.0 0.0
    outer loop
      vertex 1.5 18.5 0.5
      vertex 1.5 18.5 1.5
      vertex 2.5 18.5 1.5
    endloop
  endfacet
  facet normal 0.0 1.0 0.0
    outer loop
      vertex 1.5 18.5 0.5
      vertex 2.5 18.5 1.5
      vertex 2.5 18.5 0.5
    endloop
  endfacet
  facet normal 0.0 0.0 -1.0
    outer loop
      vertex -0.5 -0.5 -0.5
      vertex -0.5 0.5 -0.5
      vertex 0.5 0.5 -0.5
    endloop
  endfacet
  facet normal 0.0 0.0 -1.0
    outer loop
      vertex -0.5 -0.5 -0.5
      vertex 0.5 0.5 -0.5
      vertex 0.5 -0.5 -0.5
    endloop
  endfacet
  facet normal 0.0 0.0 -1.0
    outer loop
      vertex -0.5 2.5 -0.5
      vertex -0.5 3.5 -0.5
      vertex 0.5 3.5 -0.5
    endloop
  endfacet
  facet normal 0.0 0.0 -1.0
    outer loop
      vertex -0.5 2.5 -0.5
      vertex 0.5 3.5 -0.5
      vertex 0.5 2.5 -0.5
    endloop
  endfacet
  facet normal 0.0 0.0 -1.0
    outer loop
      vertex -0.5 1.5 -0.5
      vertex -0.5 2.5 -0.5
      vertex 0.5 2.5 -0.5
    endloop
  endfacet
  facet normal 0.0 0.0 -1.0
    outer loop
      vertex -0.5 1.5 -0.5
      vertex 0.5 2.5 -0.5
      vertex 0.5 1.5 -0.5
    endloop
  endfacet
  facet normal 0.0 0.0 -1.0
    outer loop
      vertex -0.5 3.5 -0.5
      vertex -0.5 4.5 -0.5
      vertex 0.5 4.5 -0.5
    endloop
  endfacet
  facet normal 0.0 0.0 -1.0
    outer loop
      vertex -0.5 3.5 -0.5
      vertex 0.5 4.5 -0.5
      vertex 0.5 3.5 -0.5
    endloop
  endfacet
  facet normal 0.0 0.0 -1.0
    outer loop
      vertex -0.5 0.5 -0.5
      vertex -0.5 1.5 -0.5
      vertex 0.5 1.5 -0.5
    endloop
  endfacet
  facet normal 0.0 0.0 -1.0
    outer loop
      vertex -0.5 0.5 -0.5
      vertex 0.5 1.5 -0.5
      vertex 0.5 0.5 -0.5
    endloop
  endfacet
  facet normal 0.0 0.0 -1.0
    outer loop
      vertex -0.5 6.5 -0.5
      vertex -0.5 7.5 -0.5
      vertex 0.5 7.5 -0.5
    endloop
  endfacet
  facet normal 0.0 0.0 -1.0
    outer loop
      vertex -0.5 6.5 -0.5
      vertex 0.5 7.5 -0.5
      vertex 0.5 6.5 -0.5
    endloop
  endfacet
  facet normal 0.0 0.0 -1.0
    outer loop
      vertex -0.5 5.5 -0.5
      vertex -0.5 6.5 -0.5
      vertex 0.5 6.5 -0.5
    endloop
  endfacet
  facet normal 0.0 0.0 -1.0
    outer loop
      vertex -0.5 5.5 -0.5
      vertex 0.5 6.5 -0.5
      vertex 0.5 5.5 -0.5
    endloop
  endfacet
  facet normal 0.0 0.0 -1.0
    outer loop
      vertex -0.5 7.5 -0.5
      vertex -0.5 8.5 -0.5
      vertex 0.5 8.5 -0.5
    endloop
  endfacet
  facet normal 0.0 0.0 -1.0
    outer loop
      vertex -0.5 7.5 -0.5
      vertex 0.5 8.5 -0.5
      vertex 0.5 7.5 -0.5
    endloop
  endfacet
  facet normal 0.0 0.0 -1.0
    outer loop
      vertex -0.5 4.5 -0.5
      vertex -0.5 5.5 -0.5
      vertex 0.5 5.5 -0.5
    endloop
  endfacet
  facet normal 0.0 0.0 -1.0
    outer loop
      vertex -0.5 4.5 -0.5
      vertex 0.5 5.5 -0.5
      vertex 0.5 4.5 -0.5
    endloop
  endfacet
  facet normal 0.0 0.0 -1.0
    outer loop
      vertex -0.5 10.5 -0.5
      vertex -0.5 11.5 -0.5
      vertex 0.5 11.5 -0.5
    endloop
  endfacet
  facet normal 0.0 0.0 -1.0
    outer loop
      vertex -0.5 10.5 -0.5
      vertex 0.5 11.5 -0.5
      vertex 0.5 10.5 -0.5
    endloop
  endfacet
  facet normal 0.0 0.0 -1.0
    outer loop
      vertex -0.5 9.5 -0.5
      vertex -0.5 10.5 -0.5
      vertex 0.5 10.5 -0.5
    endloop
  endfacet
  facet normal 0.0 0.0 -1.0
    outer loop
      vertex -0.5 9.5 -0.5
      vertex 0.5 10.5 -0.5
      vertex 0.5 9.5 -0.5
    endloop
  endfacet
  facet normal 0.0 0.0 -1.0
    outer loop
      vertex -0.5 11.5 -0.5
      vertex -0.5 12.5 -0.5
      vertex 0.5 12.5 -0.5
    endloop
  endfacet
  facet normal 0.0 0.0 -1.0
    outer loop
      vertex -0.5 11.5 -0.5
      vertex 0.5 12.5 -0.5
      vertex 0.5 11.5 -0.5
    endloop
  endfacet
  facet normal 0.0 0.0 -1.0
    outer loop
      vertex -0.5 8.5 -0.5
      vertex -0.5 9.5 -0.5
      vertex 0.5 9.5 -0.5
    endloop
  endfacet
  facet normal 0.0 0.0 -1.0
    outer loop
      vertex -0.5 8.5 -0.5
      vertex 0.5 9.5 -0.5
      vertex 0.5 8.5 -0.5
    endloop
  endfacet
  facet normal 0.0 0.0 -1.0
    outer loop
      vertex -0.5 14.5 -0.5
      vertex -0.5 15.5 -0.5
      vertex 0.5 15.5 -0.5
    endloop
  endfacet
  facet normal 0.0 0.0 -1.0
    outer loop
      vertex -0.5 14.5 -0.5
      vertex 0.5 15.5 -0.5
      vertex 0.5 14.5 -0.5
    endloop
  endfacet
  facet normal 0.0 0.0 -1.0
    outer loop
      vertex -0.5 13.5 -0.5
      vertex -0.5 14.5 -0.5
      vertex 0.5 14.5 -0.5
    endloop
  endfacet
  facet normal 0.0 0.0 -1.0
    outer loop
      vertex -0.5 13.5 -0.5
      vertex 0.5 14.5 -0.5
      vertex 0.5 13.5 -0.5
    endloop
  endfacet
  facet normal 0.0 0.0 -1.0
    outer loop
      vertex -0.5 15.5 -0.5
      vertex -0.5 16.5 -0.5
      vertex 0.5 16.5 -0.5
    endloop
  endfacet
  facet normal 0.0 0.0 -1.0
    outer loop
      vertex -0.5 15.5 -0.5
      vertex 0.5 16.5 -0.5
      vertex 0.5 15.5 -0.5
    endloop
  endfacet
  facet normal 0.0 0.0 -1.0
    outer loop
      vertex -0.5 12.5 -0.5
      vertex -0.5 13.5 -0.5
      vertex 0.5 13.5 -0.5
    endloop
  endfacet
  facet normal 0.0 0.0 -1.0
    outer loop
      vertex -0.5 12.5 -0.5
      vertex 0.5 13.5 -0.5
      vertex 0.5 12.5 -0.5
    endloop
  endfacet
  facet normal 0.0 0.0 -1.0
    outer loop
      vertex -0.5 17.5 -0.5
      vertex -0.5 18.5 -0.5
      vertex 0.5 18.5 -0.5
    endloop
  endfacet
  facet normal 0.0 0.0 -1.0
    outer loop
      vertex -0.5 17.5 -0.5
      vertex 0.5 18.5 -0.5
      vertex 0.5 17.5 -0.5
    endloop
  endfacet
  facet normal 0.0 0.0 -1.0
    outer loop
      vertex -0.5 16.5 -0.5
      vertex -0.5 17.5 -0.5
      vertex 0.5 17.5 -0.5
    endloop
  endfacet
  facet normal 0.0 0.0 -1.0
    outer loop
      vertex -0.5 16.5 -0.5
      vertex 0.5 17.5 -0.5
      vertex 0.5 16.5 -0.5
    endloop
  endfacet
  facet normal 0.0 0.0 -1.0
    outer loop
      vertex 0.5 -0.5 -0.5
      vertex 0.5 0.5 -0.5
      vertex 1.5 0.5 -0.5
    endloop
  endfacet
  facet normal 0.0 0.0 -1.0
    outer loop
      vertex 0.5 -0.5 -0.5
      vertex 1.5 0.5 -0.5
      vertex 1.5 -0.5 -0.5
    endloop
  endfacet
  facet normal 0.0 0.0 -1.0
    outer loop
      vertex 0.5 2.5 -0.5
      vertex 0.5 3.5 -0.5
      vertex 1.5 3.5 -0.5
    endloop
  endfacet
  facet normal 0.0 0.0 -1.0
    outer loop
      vertex 0.5 2.5 -0.5
      vertex 1.5 3.5 -0.5
      vertex 1.5 2.5 -0.5
    endloop
  endfacet
  facet normal 0.0 0.0 -1.0
    outer loop
      vertex 0.5 1.5 -0.5
      vertex 0.5 2.5 -0.5
      vertex 1.5 2.5 -0.5
    endloop
  endfacet
  facet normal 0.0 0.0 -1.0
    outer loop
      vertex 0.5 1.5 -0.5
      vertex 1.5 2.5 -0.5
      vertex 1.5 1.5 -0.5
    endloop
  endfacet
  facet normal 0.0 0.0 -1.0
    outer loop
      vertex 0.5 3.5 -0.5
      vertex 0.5 4.5 -0.5
      vertex 1.5 4.5 -0.5
    endloop
  endfacet
  facet normal 0.0 0.0 -1.0
    outer loop
      vertex 0.5 3.5 -0.5
      vertex 1.5 4.5 -0.5
      vertex 1.5 3.5 -0.5
    endloop
  endfacet
  facet normal 0.0 0.0 -1.0
    outer loop
      vertex 0.5 0.5 -0.5
      vertex 0.5 1.5 -0.5
      vertex 1.5 1.5 -0.5
    endloop
  endfacet
  facet normal 0.0 0.0 -1.0
    outer loop
      vertex 0.5 0.5 -0.5
      vertex 1.5 1.5 -0.5
      vertex 1.5 0.5 -0.5
    endloop
  endfacet
  facet normal 0.0 0.0 -1.0
    outer loop
      vertex 0.5 6.5 -0.5
      vertex 0.5 7.5 -0.5
      vertex 1.5 7.5 -0.5
    endloop
  endfacet
  facet normal 0.0 0.0 -1.0
    outer loop
      vertex 0.5 6.5 -0.5
      vertex 1.5 7.5 -0.5
      vertex 1.5 6.5 -0.5
    endloop
  endfacet
  facet normal 0.0 0.0 -1.0
    outer loop
      vertex 0.5 5.5 -0.5
      vertex 0.5 6.5 -0.5
      vertex 1.5 6.5 -0.5
    endloop
  endfacet
  facet normal 0.0 0.0 -1.0
    outer loop
      vertex 0.5 5.5 -0.5
      vertex 1.5 6.5 -0.5
      vertex 1.5 5.5 -0.5
    endloop
  endfacet
  facet normal 0.0 0.0 -1.0
    outer loop
      vertex 0.5 7.5 -0.5
      vertex 0.5 8.5 -0.5
      vertex 1.5 8.5 -0.5
    endloop
  endfacet
  facet normal 0.0 0.0 -1.0
    outer loop
      vertex 0.5 7.5 -0.5
      vertex 1.5 8.5 -0.5
      vertex 1.5 7.5 -0.5
    endloop
  endfacet
  facet normal 0.0 0.0 -1.0
    outer loop
      vertex 0.5 4.5 -0.5
      vertex 0.5 5.5 -0.5
      vertex 1.5 5.5 -0.5
    endloop
  endfacet
  facet normal 0.0 0.0 -1.0
    outer loop
      vertex 0.5 4.5 -0.5
      vertex 1.5 5.5 -0.5
      vertex 1.5 4.5 -0.5
    endloop
  endfacet
  facet normal 0.0 0.0 -1.0
    outer loop
      vertex 0.5 10.5 -0.5
      vertex 0.5 11.5 -0.5
      vertex 1.5 11.5 -0.5
    endloop
  endfacet
  facet normal 0.0 0.0 -1.0
    outer loop
      vertex 0.5 10.5 -0.5
      vertex 1.5 11.5 -0.5
      vertex 1.5 10.5 -0.5
    endloop
  endfacet
  facet normal 0.0 0.0 -1.0
    outer loop
      vertex 0.5 9.5 -0.5
      vertex 0.5 10.5 -0.5
      vertex 1.5 10.5 -0.5
    endloop
  endfacet
  facet normal 0.0 0.0 -1.0
    outer loop
      vertex 0.5 9.5 -0.5
      vertex 1.5 10.5 -0.5
      vertex 1.5 9.5 -0.5
    endloop
  endfacet
  facet normal 0.0 0.0 -1.0
    outer loop
      vertex 0.5 11.5 -0.5
      vertex 0.5 12.5 -0.5
      vertex 1.5 12.5 -0.5
    endloop
  endfacet
  facet normal 0.0 0.0 -1.0
    outer loop
      vertex 0.5 11.5 -0.5
      vertex 1.5 12.5 -0.5
      vertex 1.5 11.5 -0.5
    endloop
  endfacet
  facet normal 0.0 0.0 -1.0
    outer loop
      vertex 0.5 8.5 -0.5
      vertex 0.5 9.5 -0.5
      vertex 1.5 9.5 -0.5
    endloop
  endfacet
  facet normal 0.0 0.0 -1.0
    outer loop
      vertex 0.5 8.5 -0.5
      vertex 1.5 9.5 -0.5
      vertex 1.5 8.5 -0.5
    endloop
  endfacet
  facet normal 0.0 0.0 -1.0
    outer loop
      vertex 0.5 14.5 -0.5
      vertex 0.5 15.5 -0.5
      vertex 1.5 15.5 -0.5
    endloop
  endfacet
  facet normal 0.0 0.0 -1.0
    outer loop
      vertex 0.5 14.5 -0.5
      vertex 1.5 15.5 -0.5
      vertex 1.5 14.5 -0.5
    endloop
  endfacet
  facet normal 0.0 0.0 -1.0
    outer loop
      vertex 0.5 13.5 -0.5
      vertex 0.5 14.5 -0.5
      vertex 1.5 14.5 -0.5
    endloop
  endfacet
  facet normal 0.0 0.0 -1.0
    outer loop
      vertex 0.5 13.5 -0.5
      vertex 1.5 14.5 -0.5
      vertex 1.5 13.5 -0.5
    endloop
  endfacet
  facet normal 0.0 0.0 -1.0
    outer loop
      vertex 0.5 15.5 -0.5
      vertex 0.5 16.5 -0.5
      vertex 1.5 16.5 -0.5
    endloop
  endfacet
  facet normal 0.0 0.0 -1.0
    outer loop
      vertex 0.5 15.5 -0.5
      vertex 1.5 16.5 -0.5
      vertex 1.5 15.5 -0.5
    endloop
  endfacet
  facet normal 0.0 0.0 -1.0
    outer loop
      vertex 0.5 12.5 -0.5
      vertex 0.5 13.5 -0.5
      vertex 1.5 13.5 -0.5
    endloop
  endfacet
  facet normal 0.0 0.0 -1.0
    outer loop
      vertex 0.5 12.5 -0.5
      vertex 1.5 13.5 -0.5
      vertex 1.5 12.5 -0.5
    endloop
  endfacet
  facet normal 0.0 0.0 -1.0
    outer loop
      vertex 0.5 17.5 -0.5
      vertex 0.5 18.5 -0.5
      vertex 1.5 18.5 -0.5
    endloop
  endfacet
  facet normal 0.0 0.0 -1.0
    outer loop
      vertex 0.5 17.5 -0.5
      vertex 1.5 18.5 -0.5
      vertex 1.5 17.5 -0.5
    endloop
  endfacet
  facet normal 0.0 0.0 -1.0
    outer loop
      vertex 0.5 16.5 -0.5
      vertex 0.5 17.5 -0.5
      vertex 1.5 17.5 -0.5
    endloop
  endfacet
  facet normal 0.0 0.0 -1.0
    outer loop
      vertex 0.5 16.5 -0.5
      vertex 1.5 17.5 -0.5
      vertex 1.5 16.5 -0.5
    endloop
  endfacet
  facet normal 0.0 0.0 -1.0
    outer loop
      vertex 1.5 -0.5 -0.5
      vertex 1.5 0.5 -0.5
      vertex 2.5 0.5 -0.5
    endloop
  endfacet
  facet normal 0.0 0.0 -1.0
    outer loop
      vertex 1.5 -0.5 -0.5
      vertex 2.5 0.5 -0.5
      vertex 2.5 -0.5 -0.5
    endloop
  endfacet
  facet normal 0.0 0.0 -1.0
    outer loop
      vertex 1.5 2.5 -0.5
      vertex 1.5 3.5 -0.5
      vertex 2.5 3.5 -0.5
    endloop
  endfacet
  facet normal 0.0 0.0 -1.0
    outer loop
      vertex 1.5 2.5 -0.5
      vertex 2.5 3.5 -0.5
      vertex 2.5 2.5 -0.5
    endloop
  endfacet
  facet normal 0.0 0.0 -1.0
    outer loop
      vertex 1.5 1.5 -0.5
      vertex 1.5 2.5 -0.5
      vertex 2.5 2.5 -0.5
    endloop
  endfacet
  facet normal 0.0 0.0 -1.0
    outer loop
      vertex 1.5 1.5 -0.5
      vertex 2.5 2.5 -0.5
      vertex 2.5 1.5 -0.5
    endloop
  endfacet
  facet normal 0.0 0.0 -1.0
    outer loop
      vertex 1.5 3.5 -0.5
      vertex 1.5 4.5 -0.5
      vertex 2.5 4.5 -0.5
    endloop
  endfacet
  facet normal 0.0 0.0 -1.0
    outer loop
      vertex 1.5 3.5 -0.5
      vertex 2.5 4.5 -0.5
      vertex 2.5 3.5 -0.5
    endloop
  endfacet
  facet normal 0.0 0.0 -1.0
    outer loop
      vertex 1.5 0.5 -0.5
      vertex 1.5 1.5 -0.5
      vertex 2.5 1.5 -0.5
    endloop
  endfacet
  facet normal 0.0 0.0 -1.0
    outer loop
      vertex 1.5 0.5 -0.5
      vertex 2.5 1.5 -0.5
      vertex 2.5 0.5 -0.5
    endloop
  endfacet
  facet normal 0.0 0.0 -1.0
    outer loop
      vertex 1.5 6.5 -0.5
      vertex 1.5 7.5 -0.5
      vertex 2.5 7.5 -0.5
    endloop
  endfacet
  facet normal 0.0 0.0 -1.0
    outer loop
      vertex 1.5 6.5 -0.5
      vertex 2.5 7.5 -0.5
      vertex 2.5 6.5 -0.5
    endloop
  endfacet
  facet normal 0.0 0.0 -1.0
    outer loop
      vertex 1.5 5.5 -0.5
      vertex 1.5 6.5 -0.5
      vertex 2.5 6.5 -0.5
    endloop
  endfacet
  facet normal 0.0 0.0 -1.0
    outer loop
      vertex 1.5 5.5 -0.5
      vertex 2.5 6.5 -0.5
      vertex 2.5 5.5 -0.5
    endloop
  endfacet
  facet normal 0.0 0.0 -1.0
    outer loop
      vertex 1.5 7.5 -0.5
      vertex 1.5 8.5 -0.5
      vertex 2.5 8.5 -0.5
    endloop
  endfacet
  facet normal 0.0 0.0 -1.0
    outer loop
      vertex 1.5 7.5 -0.5
      vertex 2.5 8.5 -0.5
      vertex 2.5 7.5 -0.5
    endloop
  endfacet
  facet normal 0.0 0.0 -1.0
    outer loop
      vertex 1.5 4.5 -0.5
      vertex 1.5 5.5 -0.5
      vertex 2.5 5.5 -0.5
    endloop
  endfacet
  facet normal 0.0 0.0 -1.0
    outer loop
      vertex 1.5 4.5 -0.5
      vertex 2.5 5.5 -0.5
      vertex 2.5 4.5 -0.5
    endloop
  endfacet
  facet normal 0.0 0.0 -1.0
    outer loop
      vertex 1.5 10.5 -0.5
      vertex 1.5 11.5 -0.5
      vertex 2.5 11.5 -0.5
    endloop
  endfacet
  facet normal 0.0 0.0 -1.0
    outer loop
      vertex 1.5 10.5 -0.5
      vertex 2.5 11.5 -0.5
      vertex 2.5 10.5 -0.5
    endloop
  endfacet
  facet normal 0.0 0.0 -1.0
    outer loop
      vertex 1.5 9.5 -0.5
      vertex 1.5 10.5 -0.5
      vertex 2.5 10.5 -0.5
    endloop
  endfacet
  facet normal 0.0 0.0 -1.0
    outer loop
      vertex 1.5 9.5 -0.5
      vertex 2.5 10.5 -0.5
      vertex 2.5 9.5 -0.5
    endloop
  endfacet
  facet normal 0.0 0.0 -1.0
    outer loop
      vertex 1.5 11.5 -0.5
      vertex 1.5 12.5 -0.5
      vertex 2.5 12.5 -0.5
    endloop
  endfacet
  facet normal 0.0 0.0 -1.0
    outer loop
      vertex 1.5 11.5 -0.5
      vertex 2.5 12.5 -0.5
      vertex 2.5 11.5 -0.5
    endloop
  endfacet
  facet normal 0.0 0.0 -1.0
    outer loop
      vertex 1.5 8.5 -0.5
      vertex 1.5 9.5 -0.5
      vertex 2.5 9.5 -0.5
    endloop
  endfacet
  facet normal 0.0 0.0 -1.0
    outer loop
      vertex 1.5 8.5 -0.5
      vertex 2.5 9.5 -0.5
      vertex 2.5 8.5 -0.5
    endloop
  endfacet
  facet normal 0.0 0.0 -1.0
    outer loop
      vertex 1.5 14.5 -0.5
      vertex 1.5 15.5 -0.5
      vertex 2.5 15.5 -0.5
    endloop
  endfacet
  facet normal 0.0 0.0 -1.0
    outer loop
      vertex 1.5 14.5 -0.5
      vertex 2.5 15.5 -0.5
      vertex 2.5 14.5 -0.5
    endloop
  endfacet
  facet normal 0.0 0.0 -1.0
    outer loop
      vertex 1.5 13.5 -0.5
      vertex 1.5 14.5 -0.5
      vertex 2.5 14.5 -0.5
    endloop
  endfacet
  facet normal 0.0 0.0 -1.0
    outer loop
      vertex 1.5 13.5 -0.5
      vertex 2.5 14.5 -0.5
      vertex 2.5 13.5 -0.5
    endloop
  endfacet
  facet normal 0.0 0.0 -1.0
    outer loop
      vertex 1.5 15.5 -0.5
      vertex 1.5 16.5 -0.5
      vertex 2.5 16.5 -0.5
    endloop
  endfacet
  facet normal 0.0 0.0 -1.0
    outer loop
      vertex 1.5 15.5 -0.5
      vertex 2.5 16.5 -0.5
      vertex 2.5 15.5 -0.5
    endloop
  endfacet
  facet normal 0.0 0.0 -1.0
    outer loop
      vertex 1.5 12.5 -0.5
      vertex 1.5 13.5 -0.5
      vertex 2.5 13.5 -0.5
    endloop
  endfacet
  facet normal 0.0 0.0 -1.0
    outer loop
      vertex 1.5 12.5 -0.5
      vertex 2.5 13.5 -0.5
      vertex 2.5 12.5 -0.5
    endloop
  endfacet
  facet normal 0.0 0.0 -1.0
    outer loop
      vertex 1.5 17.5 -0.5
      vertex 1.5 18.5 -0.5
      vertex 2.5 18.5 -0.5
    endloop
  endfacet
  facet normal 0.0 0.0 -1.0
    outer loop
      vertex 1.5 17.5 -0.5
      vertex 2.5 18.5 -0.5
      vertex 2.5 17.5 -0.5
    endloop
  endfacet
  facet normal 0.0 0.0 -1.0
    outer loop
      vertex 1.5 16.5 -0.5
      vertex 1.5 17.5 -0.5
      vertex 2.5 17.5 -0.5
    endloop
  endfacet
  facet normal 0.0 0.0 -1.0
    outer loop
      vertex 1.5 16.5 -0.5
      vertex 2.5 17.5 -0.5
      vertex 2.5 16.5 -0.5
    endloop
  endfacet
  facet normal 0.0 0.0 1.0
    outer loop
      vertex -0.5 2.5 0.5
      vertex 0.5 2.5 0.5
      vertex 0.5 3.5 0.5
    endloop
  endfacet
  facet normal 0.0 0.0 1.0
    outer loop
      vertex -0.5 2.5 0.5
      vertex 0.5 3.5 0.5
      vertex -0.5 3.5 0.5
    endloop
  endfacet
  facet normal 0.0 0.0 1.0
    outer loop
      vertex -0.5 6.5 0.5
      vertex 0.5 6.5 0.5
      vertex 0.5 7.5 0.5
    endloop
  endfacet
  facet normal 0.0 0.0 1.0
    outer loop
      vertex -0.5 6.5 0.5
      vertex 0.5 7.5 0.5
      vertex -0.5 7.5 0.5
    endloop
  endfacet
  facet normal 0.0 0.0 1.0
    outer loop
      vertex -0.5 10.5 0.5
      vertex 0.5 10.5 0.5
      vertex 0.5 11.5 0.5
    endloop
  endfacet
  facet normal 0.0 0.0 1.0
    outer loop
      vertex -0.5 10.5 0.5
      vertex 0.5 11.5 0.5
      vertex -0.5 11.5 0.5
    endloop
  endfacet
  facet normal 0.0 0.0 1.0
    outer loop
      vertex -0.5 14.5 0.5
      vertex 0.5 14.5 0.5
      vertex 0.5 15.5 0.5
    endloop
  endfacet
  facet normal 0.0 0.0 1.0
    outer loop
      vertex -0.5 14.5 0.5
      vertex 0.5 15.5 0.5
      vertex -0.5 15.5 0.5
    endloop
  endfacet
  facet normal 0.0 0.0 1.0
    outer loop
      vertex 0.5 2.5 0.5
      vertex 1.5 2.5 0.5
      vertex 1.5 3.5 0.5
    endloop
  endfacet
  facet normal 0.0 0.0 1.0
    outer loop
      vertex 0.5 2.5 0.5
      vertex 1.5 3.5 0.5
      vertex 0.5 3.5 0.5
    endloop
  endfacet
  facet normal 0.0 0.0 1.0
    outer loop
      vertex 0.5 6.5 0.5
      vertex 1.5 6.5 0.5
      vertex 1.5 7.5 0.5
    endloop
  endfacet
  facet normal 0.0 0.0 1.0
    outer loop
      vertex 0.5 6.5 0.5
      vertex 1.5 7.5 0.5
      vertex 0.5 7.5 0.5
    endloop
  endfacet
  facet normal 0.0 0.0 1.0
    outer loop
      vertex 0.5 10.5 0.5
      vertex 1.5 10.5 0.5
      vertex 1.5 11.5 0.5
    endloop
  endfacet
  facet normal 0.0 0.0 1.0
    outer loop
      vertex 0.5 10.5 0.5
      vertex 1.5 11.5 0.5
      vertex 0.5 11.5 0.5
    endloop
  endfacet
  facet normal 0.0 0.0 1.0
    outer loop
      vertex 0.5 14.5 0.5
      vertex 1.5 14.5 0.5
      vertex 1.5 15.5 0.5
    endloop
  endfacet
  facet normal 0.0 0.0 1.0
    outer loop
      vertex 0.5 14.5 0.5
      vertex 1.5 15.5 0.5
      vertex 0.5 15.5 0.5
    endloop
  endfacet
  facet normal 0.0 0.0 1.0
    outer loop
      vertex 1.5 2.5 0.5
      vertex 2.5 2.5 0.5
      vertex 2.5 3.5 0.5
    endloop
  endfacet
  facet normal 0.0 0.0 1.0
    outer loop
      vertex 1.5 2.5 0.5
      vertex 2.5 3.5 0.5
      vertex 1.5 3.5 0.5
    endloop
  endfacet
  facet normal 0.0 0.0 1.0
    outer loop
      vertex 1.5 6.5 0.5
      vertex 2.5 6.5 0.5
      vertex 2.5 7.5 0.5
    endloop
  endfacet
  facet normal 0.0 0.0 1.0
    outer loop
      vertex 1.5 6.5 0.5
      vertex 2.5 7.5 0.5
      vertex 1.5 7.5 0.5
    endloop
  endfacet
  facet normal 0.0 0.0 1.0
    outer loop
      vertex 1.5 10.5 0.5
      vertex 2.5 10.5 0.5
      vertex 2.5 11.5 0.5
    endloop
  endfacet
  facet normal 0.0 0.0 1.0
    outer loop
      vertex 1.5 10.5 0.5
      vertex 2.5 11.5 0.5
      vertex 1.5 11.5 0.5
    endloop
  endfacet
  facet normal 0.0 0.0 1.0
    outer loop
      vertex 1.5 14.5 0.5
      vertex 2.5 14.5 0.5
      vertex 2.5 15.5 0.5
    endloop
  endfacet
  facet normal 0.0 0.0 1.0
    outer loop
      vertex 1.5 14.5 0.5
      vertex 2.5 15.5 0.5
      vertex 1.5 15.5 0.5
    endloop
  endfacet
  facet normal 0.0 1.0 0.0
    outer loop
      vertex -0.5 2.5 0.5
      vertex -0.5 2.5 1.5
      vertex 0.5 2.5 1.5
    endloop
  endfacet
  facet normal 0.0 1.0 0.0
    outer loop
      vertex -0.5 2.5 0.5
      vertex 0.5 2.5 1.5
      vertex 0.5 2.5 0.5
    endloop
  endfacet
  facet normal 0.0 1.0 0.0
    outer loop
      vertex 0.5 2.5 0.5
      vertex 0.5 2.5 1.5
      vertex 1.5 2.5 1.5
    endloop
  endfacet
  facet normal 0.0 1.0 0.0
    outer loop
      vertex 0.5 2.5 0.5
      vertex 1.5 2.5 1.5
      vertex 1.5 2.5 0.5
    endloop
  endfacet
  facet normal 0.0 1.0 0.0
    outer loop
      vertex 1.5 2.5 0.5
      vertex 1.5 2.5 1.5
      vertex 2.5 2.5 1.5
    endloop
  endfacet
  facet normal 0.0 1.0 0.0
    outer loop
      vertex 1.5 2.5 0.5
      vertex 2.5 2.5 1.5
      vertex 2.5 2.5 0.5
    endloop
  endfacet
  facet normal 0.0 -1.0 0.0
    outer loop
      vertex -0.5 3.5 0.5
      vertex 0.5 3.5 0.5
      vertex 0.5 3.5 1.5
    endloop
  endfacet
  facet normal 0.0 -1.0 0.0
    outer loop
      vertex -0.5 3.5 0.5
      vertex 0.5 3.5 1.5
      vertex -0.5 3.5 1.5
    endloop
  endfacet
  facet normal 0.0 -1.0 0.0
    outer loop
      vertex 0.5 3.5 0.5
      vertex 1.5 3.5 0.5
      vertex 1.5 3.5 1.5
    endloop
  endfacet
  facet normal 0.0 -1.0 0.0
    outer loop
      vertex 0.5 3.5 0.5
      vertex 1.5 3.5 1.5
      vertex 0.5 3.5 1.5
    endloop
  endfacet
  facet normal 0.0 -1.0 0.0
    outer loop
      vertex 1.5 3.5 0.5
      vertex 2.5 3.5 0.5
      vertex 2.5 3.5 1.5
    endloop
  endfacet
  facet normal 0.0 -1.0 0.0
    outer loop
      vertex 1.5 3.5 0.5
      vertex 2.5 3.5 1.5
      vertex 1.5 3.5 1.5
    endloop
  endfacet
  facet normal 0.0 1.0 0.0
    outer loop
      vertex -0.5 6.5 0.5
      vertex -0.5 6.5 1.5
      vertex 0.5 6.5 1.5
    endloop
  endfacet
  facet normal 0.0 1.0 0.0
    outer loop
      vertex -0.5 6.5 0.5
      vertex 0.5 6.5 1.5
      vertex 0.5 6.5 0.5
    endloop
  endfacet
  facet normal 0.0 1.0 0.0
    outer loop
      vertex 0.5 6.5 0.5
      vertex 0.5 6.5 1.5
      vertex 1.5 6.5 1.5
    endloop
  endfacet
  facet normal 0.0 1.0 0.0
    outer loop
      vertex 0.5 6.5 0.5
      vertex 1.5 6.5 1.5
      vertex 1.5 6.5 0.5
    endloop
  endfacet
  facet normal 0.0 1.0 0.0
    outer loop
      vertex 1.5 6.5 0.5
      vertex 1.5 6.5 1.5
      vertex 2.5 6.5 1.5
    endloop
  endfacet
  facet normal 0.0 1.0 0.0
    outer loop
      vertex 1.5 6.5 0.5
      vertex 2.5 6.5 1.5
      vertex 2.5 6.5 0.5
    endloop
  endfacet
  facet normal 0.0 -1.0 0.0
    outer loop
      vertex -0.5 7.5 0.5
      vertex 0.5 7.5 0.5
      vertex 0.5 7.5 1.5
    endloop
  endfacet
  facet normal 0.0 -1.0 0.0
    outer loop
      vertex -0.5 7.5 0.5
      vertex 0.5 7.5 1.5
      vertex -0.5 7.5 1.5
    endloop
  endfacet
  facet normal 0.0 -1.0 0.0
    outer loop
      vertex 0.5 7.5 0.5
      vertex 1.5 7.5 0.5
      vertex 1.5 7.5 1.5
    endloop
  endfacet
  facet normal 0.0 -1.0 0.0
    outer loop
      vertex 0.5 7.5 0.5
      vertex 1.5 7.5 1.5
      vertex 0.5 7.5 1.5
    endloop
  endfacet
  facet normal 0.0 -1.0 0.0
    outer loop
      vertex 1.5 7.5 0.5
      vertex 2.5 7.5 0.5
      vertex 2.5 7.5 1.5
    endloop
  endfacet
  facet normal 0.0 -1.0 0.0
    outer loop
      vertex 1.5 7.5 0.5
      vertex 2.5 7.5 1.5
      vertex 1.5 7.5 1.5
    endloop
  endfacet
  facet normal 0.0 1.0 0.0
    outer loop
      vertex -0.5 10.5 0.5
      vertex -0.5 10.5 1.5
      vertex 0.5 10.5 1.5
    endloop
  endfacet
  facet normal 0.0 1.0 0.0
    outer loop
      vertex -0.5 10.5 0.5
      vertex 0.5 10.5 1.5
      vertex 0.5 10.5 0.5
    endloop
  endfacet
  facet normal 0.0 1.0 0.0
    outer loop
      vertex 0.5 10.5 0.5
      vertex 0.5 10.5 1.5
      vertex 1.5 10.5 1.5
    endloop
  endfacet
  facet normal 0.0 1.0 0.0
    outer loop
      vertex 0.5 10.5 0.5
      vertex 1.5 10.5 1.5
      vertex 1.5 10.5 0.5
    endloop
  endfacet
  facet normal 0.0 1.0 0.0
    outer loop
      vertex 1.5 10.5 0.5
      vertex 1.5 10.5 1.5
      vertex 2.5 10.5 1.5
    endloop
  endfacet
  facet normal 0.0 1.0 0.0
    outer loop
      vertex 1.5 10.5 0.5
      vertex 2.5 10.5 1.5
      vertex 2.5 10.5 0.5
    endloop
  endfacet
  facet normal 0.0 -1.0 0.0
    outer loop
      vertex -0.5 11.5 0.5
      vertex 0.5 11.5 0.5
      vertex 0.5 11.5 1.5
    endloop
  endfacet
  facet normal 0.0 -1.0 0.0
    outer loop
      vertex -0.5 11.5 0.5
      vertex 0.5 11.5 1.5
      vertex -0.5 11.5 1.5
    endloop
  endfacet
  facet normal 0.0 -1.0 0.0
    outer loop
      vertex 0.5 11.5 0.5
      vertex 1.5 11.5 0.5
      vertex 1.5 11.5 1.5
    endloop
  endfacet
  facet normal 0.0 -1.0 0.0
    outer loop
      vertex 0.5 11.5 0.5
      vertex 1.5 11.5 1.5
      vertex 0.5 11.5 1.5
    endloop
  endfacet
  facet normal 0.0 -1.0 0.0
    outer loop
      vertex 1.5 11.5 0.5
      vertex 2.5 11.5 0.5
      vertex 2.5 11.5 1.5
    endloop
  endfacet
  facet normal 0.0 -1.0 0.0
    outer loop
      vertex 1.5 11.5 0.5
      vertex 2.5 11.5 1.5
      vertex 1.5 11.5 1.5
    endloop
  endfacet
  facet normal 0.0 1.0 0.0
    outer loop
      vertex -0.5 14.5 0.5
      vertex -0.5 14.5 1.5
      vertex 0.5 14.5 1.5
    endloop
  endfacet
  facet normal 0.0 1.0 0.0
    outer loop
      vertex -0.5 14.5 0.5
      vertex 0.5 14.5 1.5
      vertex 0.5 14.5 0.5
    endloop
  endfacet
  facet normal 0.0 1.0 0.0
    outer loop
      vertex 0.5 14.5 0.5
      vertex 0.5 14.5 1.5
      vertex 1.5 14.5 1.5
    endloop
  endfacet
  facet normal 0.0 1.0 0.0
    outer loop
      vertex 0.5 14.5 0.5
      vertex 1.5 14.5 1.5
      vertex 1.5 14.5 0.5
    endloop
  endfacet
  facet normal 0.0 1.0 0.0
    outer loop
      vertex 1.5 14.5 0.5
      vertex 1.5 14.5 1.5
      vertex 2.5 14.5 1.5
    endloop
  endfacet
  facet normal 0.0 1.0 0.0
    outer loop
      vertex 1.5 14.5 0.5
      vertex 2.5 14.5 1.5
      vertex 2.5 14.5 0.5
    endloop
  endfacet
  facet normal 0.0 -1.0 0.0
    outer loop
      vertex -0.5 15.5 0.5
      vertex 0.5 15.5 0.5
      vertex 0.5 15.5 1.5
    endloop
  endfacet
  facet normal 0.0 -1.0 0.0
    outer loop
      vertex -0.5 15.5 0.5
      vertex 0.5 15.5 1.5
      vertex -0.5 15.5 1.5
    endloop
  endfacet
  facet normal 0.0 -1.0 0.0
    outer loop
      vertex 0.5 15.5 0.5
      vertex 1.5 15.5 0.5
      vertex 1.5 15.5 1.5
    endloop
  endfacet
  facet normal 0.0 -1.0 0.0
    outer loop
      vertex 0.5 15.5 0.5
      vertex 1.5 15.5 1.5
      vertex 0.5 15.5 1.5
    endloop
  endfacet
  facet normal 0.0 -1.0 0.0
    outer loop
      vertex 1.5 15.5 0.5
      vertex 2.5 15.5 0.5
      vertex 2.5 15.5 1.5
    endloop
  endfacet
  facet normal 0.0 -1.0 0.0
    outer loop
      vertex 1.5 15.5 0.5
      vertex 2.5 15.5 1.5
      vertex 1.5 15.5 1.5
    endloop
  endfacet
  facet normal 0.0 0.0 1.0
    outer loop
      vertex -0.5 15.5 1.5
      vertex 0.5 15.5 1.5
      vertex 0.5 16.5 1.5
    endloop
  endfacet
  facet normal 0.0 0.0 1.0
    outer loop
      vertex -0.5 15.5 1.5
      vertex 0.5 16.5 1.5
      vertex -0.5 16.5 1.5
    endloop
  endfacet
  facet normal 0.0 0.0 1.0
    outer loop
      vertex -0.5 17.5 1.5
      vertex 0.5 17.5 1.5
      vertex 0.5 18.5 1.5
    endloop
  endfacet
  facet normal 0.0 0.0 1.0
    outer loop
      vertex -0.5 17.5 1.5
      vertex 0.5 18.5 1.5
      vertex -0.5 18.5 1.5
    endloop
  endfacet
  facet normal 0.0 0.0 1.0
    outer loop
      vertex 0.5 15.5 1.5
      vertex 1.5 15.5 1.5
      vertex 1.5 16.5 1.5
    endloop
  endfacet
  facet normal 0.0 0.0 1.0
    outer loop
      vertex 0.5 15.5 1.5
      vertex 1.5 16.5 1.5
      vertex 0.5 16.5 1.5
    endloop
  endfacet
  facet normal 0.0 0.0 1.0
    outer loop
      vertex 0.5 17.5 1.5
      vertex 1.5 17.5 1.5
      vertex 1.5 18.5 1.5
    endloop
  endfacet
  facet normal 0.0 0.0 1.0
    outer loop
      vertex 0.5 17.5 1.5
      vertex 1.5 18.5 1.5
      vertex 0.5 18.5 1.5
    endloop
  endfacet
  facet normal 0.0 0.0 1.0
    outer loop
      vertex 1.5 15.5 1.5
      vertex 2.5 15.5 1.5
      vertex 2.5 16.5 1.5
    endloop
  endfacet
  facet normal 0.0 0.0 1.0
    outer loop
      vertex 1.5 15.5 1.5
      vertex 2.5 16.5 1.5
      vertex 1.5 16.5 1.5
    endloop
  endfacet
  facet normal 0.0 0.0 1.0
    outer loop
      vertex 1.5 17.5 1.5
      vertex 2.5 17.5 1.5
      vertex 2.5 18.5 1.5
    endloop
  endfacet
  facet normal 0.0 0.0 1.0
    outer loop
      vertex 1.5 17.5 1.5
      vertex 2.5 18.5 1.5
      vertex 1.5 18.5 1.5
    endloop
  endfacet
  facet normal 0.0 -1.0 0.0
    outer loop
      vertex -0.5 16.5 1.5
      vertex 0.5 16.5 1.5
      vertex 0.5 16.5 2.5
    endloop
  endfacet
  facet normal 0.0 -1.0 0.0
    outer loop
      vertex -0.5 16.5 1.5
      vertex 0.5 16.5 2.5
      vertex -0.5 16.5 2.5
    endloop
  endfacet
  facet normal 0.0 -1.0 0.0
    outer loop
      vertex -0.5 16.5 2.5
      vertex 0.5 16.5 2.5
      vertex 0.5 16.5 3.5
    endloop
  endfacet
  facet normal 0.0 -1.0 0.0
    outer loop
      vertex -0.5 16.5 2.5
      vertex 0.5 16.5 3.5
      vertex -0.5 16.5 3.5
    endloop
  endfacet
  facet normal 0.0 -1.0 0.0
    outer loop
      vertex 0.5 16.5 1.5
      vertex 1.5 16.5 1.5
      vertex 1.5 16.5 2.5
    endloop
  endfacet
  facet normal 0.0 -1.0 0.0
    outer loop
      vertex 0.5 16.5 1.5
      vertex 1.5 16.5 2.5
      vertex 0.5 16.5 2.5
    endloop
  endfacet
  facet normal 0.0 -1.0 0.0
    outer loop
      vertex 0.5 16.5 2.5
      vertex 1.5 16.5 2.5
      vertex 1.5 16.5 3.5
    endloop
  endfacet
  facet normal 0.0 -1.0 0.0
    outer loop
      vertex 0.5 16.5 2.5
      vertex 1.5 16.5 3.5
      vertex 0.5 16.5 3.5
    endloop
  endfacet
  facet normal 0.0 -1.0 0.0
    outer loop
      vertex 1.5 16.5 1.5
      vertex 2.5 16.5 1.5
      vertex 2.5 16.5 2.5
    endloop
  endfacet
  facet normal 0.0 -1.0 0.0
    outer loop
      vertex 1.5 16.5 1.5
      vertex 2.5 16.5 2.5
      vertex 1.5 16.5 2.5
    endloop
  endfacet
  facet normal 0.0 -1.0 0.0
    outer loop
      vertex 1.5 16.5 2.5
      vertex 2.5 16.5 2.5
      vertex 2.5 16.5 3.5
    endloop
  endfacet
  facet normal 0.0 -1.0 0.0
    outer loop
      vertex 1.5 16.5 2.5
      vertex 2.5 16.5 3.5
      vertex 1.5 16.5 3.5
    endloop
  endfacet
  facet normal 0.0 1.0 0.0
    outer loop
      vertex -0.5 17.5 1.5
      vertex -0.5 17.5 2.5
      vertex 0.5 17.5 2.5
    endloop
  endfacet
  facet normal 0.0 1.0 0.0
    outer loop
      vertex -0.5 17.5 1.5
      vertex 0.5 17.5 2.5
      vertex 0.5 17.5 1.5
    endloop
  endfacet
  facet normal 0.0 1.0 0.0
    outer loop
      vertex -0.5 17.5 2.5
      vertex -0.5 17.5 3.5
      vertex 0.5 17.5 3.5
    endloop
  endfacet
  facet normal 0.0 1.0 0.0
    outer loop
      vertex -0.5 17.5 2.5
      vertex 0.5 17.5 3.5
      vertex 0.5 17.5 2.5
    endloop
  endfacet
  facet normal 0.0 1.0 0.0
    outer loop
      vertex 0.5 17.5 1.5
      vertex 0.5 17.5 2.5
      vertex 1.5 17.5 2.5
    endloop
  endfacet
  facet normal 0.0 1.0 0.0
    outer loop
      vertex 0.5 17.5 1.5
      vertex 1.5 17.5 2.5
      vertex 1.5 17.5 1.5
    endloop
  endfacet
  facet normal 0.0 1.0 0.0
    outer loop
      vertex 0.5 17.5 2.5
      vertex 0.5 17.5 3.5
      vertex 1.5 17.5 3.5
    endloop
  endfacet
  facet normal 0.0 1.0 0.0
    outer loop
      vertex 0.5 17.5 2.5
      vertex 1.5 17.5 3.5
      vertex 1.5 17.5 2.5
    endloop
  endfacet
  facet normal 0.0 1.0 0.0
    outer loop
      vertex 1.5 17.5 1.5
      vertex 1.5 17.5 2.5
      vertex 2.5 17.5 2.5
    endloop
  endfacet
  facet normal 0.0 1.0 0.0
    outer loop
      vertex 1.5 17.5 1.5
      vertex 2.5 17.5 2.5
      vertex 2.5 17.5 1.5
    endloop
  endfacet
  facet normal 0.0 1.0 0.0
    outer loop
      vertex 1.5 17.5 2.5
      vertex 1.5 17.5 3.5
      vertex 2.5 17.5 3.5
    endloop
  endfacet
  facet normal 0.0 1.0 0.0
    outer loop
      vertex 1.5 17.5 2.5
      vertex 2.5 17.5 3.5
      vertex 2.5 17.5 2.5
    endloop
  endfacet
  facet normal 0.0 0.0 1.0
    outer loop
      vertex 1.5 16.5 3.5
      vertex 2.5 16.5 3.5
      vertex 2.5 17.5 3.5
    endloop
  endfacet
  facet normal 0.0 0.0 1.0
    outer loop
      vertex 1.5 16.5 3.5
      vertex 2.5 17.5 3.5
      vertex 1.5 17.5 3.5
    endloop
  endfacet
  facet normal 0.0 0.0 1.0
    outer loop
      vertex 0.5 16.5 3.5
      vertex 1.5 16.5 3.5
      vertex 1.5 17.5 3.5
    endloop
  endfacet
  facet normal 0.0 0.0 1.0
    outer loop
      vertex 0.5 16.5 3.5
      vertex 1.5 17.5 3.5
      vertex 0.5 17.5 3.5
    endloop
  endfacet
  facet normal 0.0 0.0 1.0
    outer loop
      vertex -0.5 16.5 3.5
      vertex 0.5 16.5 3.5
      vertex 0.5 17.5 3.5
    endloop
  endfacet
  facet normal 0.0 0.0 1.0
    outer loop
      vertex -0.5 16.5 3.5
      vertex 0.5 17.5 3.5
      vertex -0.5 17.5 3.5
    endloop
  endfacet
  facet normal 0.0 0.0 1.0
    outer loop
      vertex -0.5 11.5 1.5
      vertex 0.5 11.5 1.5
      vertex 0.5 12.5 1.5
    endloop
  endfacet
  facet normal 0.0 0.0 1.0
    outer loop
      vertex -0.5 11.5 1.5
      vertex 0.5 12.5 1.5
      vertex -0.5 12.5 1.5
    endloop
  endfacet
  facet normal 0.0 0.0 1.0
    outer loop
      vertex -0.5 13.5 1.5
      vertex 0.5 13.5 1.5
      vertex 0.5 14.5 1.5
    endloop
  endfacet
  facet normal 0.0 0.0 1.0
    outer loop
      vertex -0.5 13.5 1.5
      vertex 0.5 14.5 1.5
      vertex -0.5 14.5 1.5
    endloop
  endfacet
  facet normal 0.0 0.0 1.0
    outer loop
      vertex 0.5 11.5 1.5
      vertex 1.5 11.5 1.5
      vertex 1.5 12.5 1.5
    endloop
  endfacet
  facet normal 0.0 0.0 1.0
    outer loop
      vertex 0.5 11.5 1.5
      vertex 1.5 12.5 1.5
      vertex 0.5 12.5 1.5
    endloop
  endfacet
  facet normal 0.0 0.0 1.0
    outer loop
      vertex 0.5 13.5 1.5
      vertex 1.5 13.5 1.5
      vertex 1.5 14.5 1.5
    endloop
  endfacet
  facet normal 0.0 0.0 1.0
    outer loop
      vertex 0.5 13.5 1.5
      vertex 1.5 14.5 1.5
      vertex 0.5 14.5 1.5
    endloop
  endfacet
  facet normal 0.0 0.0 1.0
    outer loop
      vertex 1.5 11.5 1.5
      vertex 2.5 11.5 1.5
      vertex 2.5 12.5 1.5
    endloop
  endfacet
  facet normal 0.0 0.0 1.0
    outer loop
      vertex 1.5 11.5 1.5
      vertex 2.5 12.5 1.5
      vertex 1.5 12.5 1.5
    endloop
  endfacet
  facet normal 0.0 0.0 1.0
    outer loop
      vertex 1.5 13.5 1.5
      vertex 2.5 13.5 1.5
      vertex 2.5 14.5 1.5
    endloop
  endfacet
  facet normal 0.0 0.0 1.0
    outer loop
      vertex 1.5 13.5 1.5
      vertex 2.5 14.5 1.5
      vertex 1.5 14.5 1.5
    endloop
  endfacet
  facet normal 0.0 -1.0 0.0
    outer loop
      vertex -0.5 12.5 1.5
      vertex 0.5 12.5 1.5
      vertex 0.5 12.5 2.5
    endloop
  endfacet
  facet normal 0.0 -1.0 0.0
    outer loop
      vertex -0.5 12.5 1.5
      vertex 0.5 12.5 2.5
      vertex -0.5 12.5 2.5
    endloop
  endfacet
  facet normal 0.0 -1.0 0.0
    outer loop
      vertex -0.5 12.5 2.5
      vertex 0.5 12.5 2.5
      vertex 0.5 12.5 3.5
    endloop
  endfacet
  facet normal 0.0 -1.0 0.0
    outer loop
      vertex -0.5 12.5 2.5
      vertex 0.5 12.5 3.5
      vertex -0.5 12.5 3.5
    endloop
  endfacet
  facet normal 0.0 -1.0 0.0
    outer loop
      vertex 0.5 12.5 1.5
      vertex 1.5 12.5 1.5
      vertex 1.5 12.5 2.5
    endloop
  endfacet
  facet normal 0.0 -1.0 0.0
    outer loop
      vertex 0.5 12.5 1.5
      vertex 1.5 12.5 2.5
      vertex 0.5 12.5 2.5
    endloop
  endfacet
  facet normal 0.0 -1.0 0.0
    outer loop
      vertex 0.5 12.5 2.5
      vertex 1.5 12.5 2.5
      vertex 1.5 12.5 3.5
    endloop
  endfacet
  facet normal 0.0 -1.0 0.0
    outer loop
      vertex 0.5 12.5 2.5
      vertex 1.5 12.5 3.5
      vertex 0.5 12.5 3.5
    endloop
  endfacet
  facet normal 0.0 -1.0 0.0
    outer loop
      vertex 1.5 12.5 1.5
      vertex 2.5 12.5 1.5
      vertex 2.5 12.5 2.5
    endloop
  endfacet
  facet normal 0.0 -1.0 0.0
    outer loop
      vertex 1.5 12.5 1.5
      vertex 2.5 12.5 2.5
      vertex 1.5 12.5 2.5
    endloop
  endfacet
  facet normal 0.0 -1.0 0.0
    outer loop
      vertex 1.5 12.5 2.5
      vertex 2.5 12.5 2.5
      vertex 2.5 12.5 3.5
    endloop
  endfacet
  facet normal 0.0 -1.0 0.0
    outer loop
      vertex 1.5 12.5 2.5
      vertex 2.5 12.5 3.5
      vertex 1.5 12.5 3.5
    endloop
  endfacet
  facet normal 0.0 1.0 0.0
    outer loop
      vertex -0.5 13.5 1.5
      vertex -0.5 13.5 2.5
      vertex 0.5 13.5 2.5
    endloop
  endfacet
  facet normal 0.0 1.0 0.0
    outer loop
      vertex -0.5 13.5 1.5
      vertex 0.5 13.5 2.5
      vertex 0.5 13.5 1.5
    endloop
  endfacet
  facet normal 0.0 1.0 0.0
    outer loop
      vertex -0.5 13.5 2.5
      vertex -0.5 13.5 3.5
      vertex 0.5 13.5 3.5
    endloop
  endfacet
  facet normal 0.0 1.0 0.0
    outer loop
      vertex -0.5 13.5 2.5
      vertex 0.5 13.5 3.5
      vertex 0.5 13.5 2.5
    endloop
  endfacet
  facet normal 0.0 1.0 0.0
    outer loop
      vertex 0.5 13.5 1.5
      vertex 0.5 13.5 2.5
      vertex 1.5 13.5 2.5
    endloop
  endfacet
  facet normal 0.0 1.0 0.0
    outer loop
      vertex 0.5 13.5 1.5
      vertex 1.5 13.5 2.5
      vertex 1.5 13.5 1.5
    endloop
  endfacet
  facet normal 0.0 1.0 0.0
    outer loop
      vertex 0.5 13.5 2.5
      vertex 0.5 13.5 3.5
      vertex 1.5 13.5 3.5
    endloop
  endfacet
  facet normal 0.0 1.0 0.0
    outer loop
      vertex 0.5 13.5 2.5
      vertex 1.5 13.5 3.5
      vertex 1.5 13.5 2.5
    endloop
  endfacet
  facet normal 0.0 1.0 0.0
    outer loop
      vertex 1.5 13.5 1.5
      vertex 1.5 13.5 2.5
      vertex 2.5 13.5 2.5
    endloop
  endfacet
  facet normal 0.0 1.0 0.0
    outer loop
      vertex 1.5 13.5 1.5
      vertex 2.5 13.5 2.5
      vertex 2.5 13.5 1.5
    endloop
  endfacet
  facet normal 0.0 1.0 0.0
    outer loop
      vertex 1.5 13.5 2.5
      vertex 1.5 13.5 3.5
      vertex 2.5 13.5 3.5
    endloop
  endfacet
  facet normal 0.0 1.0 0.0
    outer loop
      vertex 1.5 13.5 2.5
      vertex 2.5 13.5 3.5
      vertex 2.5 13.5 2.5
    endloop
  endfacet
  facet normal 0.0 0.0 1.0
    outer loop
      vertex -0.5 12.5 3.5
      vertex 0.5 12.5 3.5
      vertex 0.5 13.5 3.5
    endloop
  endfacet
  facet normal 0.0 0.0 1.0
    outer loop
      vertex -0.5 12.5 3.5
      vertex 0.5 13.5 3.5
      vertex -0.5 13.5 3.5
    endloop
  endfacet
  facet normal 0.0 0.0 1.0
    outer loop
      vertex 0.5 12.5 3.5
      vertex 1.5 12.5 3.5
      vertex 1.5 13.5 3.5
    endloop
  endfacet
  facet normal 0.0 0.0 1.0
    outer loop
      vertex 0.5 12.5 3.5
      vertex 1.5 13.5 3.5
      vertex 0.5 13.5 3.5
    endloop
  endfacet
  facet normal 0.0 0.0 1.0
    outer loop
      vertex 1.5 12.5 3.5
      vertex 2.5 12.5 3.5
      vertex 2.5 13.5 3.5
    endloop
  endfacet
  facet normal 0.0 0.0 1.0
    outer loop
      vertex 1.5 12.5 3.5
      vertex 2.5 13.5 3.5
      vertex 1.5 13.5 3.5
    endloop
  endfacet
  facet normal 0.0 0.0 1.0
    outer loop
      vertex -0.5 7.5 1.5
      vertex 0.5 7.5 1.5
      vertex 0.5 8.5 1.5
    endloop
  endfacet
  facet normal 0.0 0.0 1.0
    outer loop
      vertex -0.5 7.5 1.5
      vertex 0.5 8.5 1.5
      vertex -0.5 8.5 1.5
    endloop
  endfacet
  facet normal 0.0 0.0 1.0
    outer loop
      vertex -0.5 9.5 1.5
      vertex 0.5 9.5 1.5
      vertex 0.5 10.5 1.5
    endloop
  endfacet
  facet normal 0.0 0.0 1.0
    outer loop
      vertex -0.5 9.5 1.5
      vertex 0.5 10.5 1.5
      vertex -0.5 10.5 1.5
    endloop
  endfacet
  facet normal 0.0 0.0 1.0
    outer loop
      vertex 0.5 7.5 1.5
      vertex 1.5 7.5 1.5
      vertex 1.5 8.5 1.5
    endloop
  endfacet
  facet normal 0.0 0.0 1.0
    outer loop
      vertex 0.5 7.5 1.5
      vertex 1.5 8.5 1.5
      vertex 0.5 8.5 1.5
    endloop
  endfacet
  facet normal 0.0 0.0 1.0
    outer loop
      vertex 0.5 9.5 1.5
      vertex 1.5 9.5 1.5
      vertex 1.5 10.5 1.5
    endloop
  endfacet
  facet normal 0.0 0.0 1.0
    outer loop
      vertex 0.5 9.5 1.5
      vertex 1.5 10.5 1.5
      vertex 0.5 10.5 1.5
    endloop
  endfacet
  facet normal 0.0 0.0 1.0
    outer loop
      vertex 1.5 7.5 1.5
      vertex 2.5 7.5 1.5
      vertex 2.5 8.5 1.5
    endloop
  endfacet
  facet normal 0.0 0.0 1.0
    outer loop
      vertex 1.5 7.5 1.5
      vertex 2.5 8.5 1.5
      vertex 1.5 8.5 1.5
    endloop
  endfacet
  facet normal 0.0 0.0 1.0
    outer loop
      vertex 1.5 9.5 1.5
      vertex 2.5 9.5 1.5
      vertex 2.5 10.5 1.5
    endloop
  endfacet
  facet normal 0.0 0.0 1.0
    outer loop
      vertex 1.5 9.5 1.5
      vertex 2.5 10.5 1.5
      vertex 1.5 10.5 1.5
    endloop
  endfacet
  facet normal 0.0 -1.0 0.0
    outer loop
      vertex -0.5 8.5 1.5
      vertex 0.5 8.5 1.5
      vertex 0.5 8.5 2.5
    endloop
  endfacet
  facet normal 0.0 -1.0 0.0
    outer loop
      vertex -0.5 8.5 1.5
      vertex 0.5 8.5 2.5
      vertex -0.5 8.5 2.5
    endloop
  endfacet
  facet normal 0.0 -1.0 0.0
    outer loop
      vertex -0.5 8.5 2.5
      vertex 0.5 8.5 2.5
      vertex 0.5 8.5 3.5
    endloop
  endfacet
  facet normal 0.0 -1.0 0.0
    outer loop
      vertex -0.5 8.5 2.5
      vertex 0.5 8.5 3.5
      vertex -0.5 8.5 3.5
    endloop
  endfacet
  facet normal 0.0 -1.0 0.0
    outer loop
      vertex 0.5 8.5 1.5
      vertex 1.5 8.5 1.5
      vertex 1.5 8.5 2.5
    endloop
  endfacet
  facet normal 0.0 -1.0 0.0
    outer loop
      vertex 0.5 8.5 1.5
      vertex 1.5 8.5 2.5
      vertex 0.5 8.5 2.5
    endloop
  endfacet
  facet normal 0.0 -1.0 0.0
    outer loop
      vertex 0.5 8.5 2.5
      vertex 1.5 8.5 2.5
      vertex 1.5 8.5 3.5
    endloop
  endfacet
  facet normal 0.0 -1.0 0.0
    outer loop
      vertex 0.5 8.5 2.5
      vertex 1.5 8.5 3.5
      vertex 0.5 8.5 3.5
    endloop
  endfacet
  facet normal 0.0 -1.0 0.0
    outer loop
      vertex 1.5 8.5 1.5
      vertex 2.5 8.5 1.5
      vertex 2.5 8.5 2.5
    endloop
  endfacet
  facet normal 0.0 -1.0 0.0
    outer loop
      vertex 1.5 8.5 1.5
      vertex 2.5 8.5 2.5
      vertex 1.5 8.5 2.5
    endloop
  endfacet
  facet normal 0.0 -1.0 0.0
    outer loop
      vertex 1.5 8.5 2.5
      vertex 2.5 8.5 2.5
      vertex 2.5 8.5 3.5
    endloop
  endfacet
  facet normal 0.0 -1.0 0.0
    outer loop
      vertex 1.5 8.5 2.5
      vertex 2.5 8.5 3.5
      vertex 1.5 8.5 3.5
    endloop
  endfacet
  facet normal 0.0 1.0 0.0
    outer loop
      vertex -0.5 9.5 1.5
      vertex -0.5 9.5 2.5
      vertex 0.5 9.5 2.5
    endloop
  endfacet
  facet normal 0.0 1.0 0.0
    outer loop
      vertex -0.5 9.5 1.5
      vertex 0.5 9.5 2.5
      vertex 0.5 9.5 1.5
    endloop
  endfacet
  facet normal 0.0 1.0 0.0
    outer loop
      vertex -0.5 9.5 2.5
      vertex -0.5 9.5 3.5
      vertex 0.5 9.5 3.5
    endloop
  endfacet
  facet normal 0.0 1.0 0.0
    outer loop
      vertex -0.5 9.5 2.5
      vertex 0.5 9.5 3.5
      vertex 0.5 9.5 2.5
    endloop
  endfacet
  facet normal 0.0 1.0 0.0
    outer loop
      vertex 0.5 9.5 1.5
      vertex 0.5 9.5 2.5
      vertex 1.5 9.5 2.5
    endloop
  endfacet
  facet normal 0.0 1.0 0.0
    outer loop
      vertex 0.5 9.5 1.5
      vertex 1.5 9.5 2.5
      vertex 1.5 9.5 1.5
    endloop
  endfacet
  facet normal 0.0 1.0 0.0
    outer loop
      vertex 0.5 9.5 2.5
      vertex 0.5 9.5 3.5
      vertex 1.5 9.5 3.5
    endloop
  endfacet
  facet normal 0.0 1.0 0.0
    outer loop
      vertex 0.5 9.5 2.5
      vertex 1.5 9.5 3.5
      vertex 1.5 9.5 2.5
    endloop
  endfacet
  facet normal 0.0 1.0 0.0
    outer loop
      vertex 1.5 9.5 1.5
      vertex 1.5 9.5 2.5
      vertex 2.5 9.5 2.5
    endloop
  endfacet
  facet normal 0.0 1.0 0.0
    outer loop
      vertex 1.5 9.5 1.5
      vertex 2.5 9.5 2.5
      vertex 2.5 9.5 1.5
    endloop
  endfacet
  facet normal 0.0 1.0 0.0
    outer loop
      vertex 1.5 9.5 2.5
      vertex 1.5 9.5 3.5
      vertex 2.5 9.5 3.5
    endloop
  endfacet
  facet normal 0.0 1.0 0.0
    outer loop
      vertex 1.5 9.5 2.5
      vertex 2.5 9.5 3.5
      vertex 2.5 9.5 2.5
    endloop
  endfacet
  facet normal 0.0 0.0 1.0
    outer loop
      vertex -0.5 8.5 3.5
      vertex 0.5 8.5 3.5
      vertex 0.5 9.5 3.5
    endloop
  endfacet
  facet normal 0.0 0.0 1.0
    outer loop
      vertex -0.5 8.5 3.5
      vertex 0.5 9.5 3.5
      vertex -0.5 9.5 3.5
    endloop
  endfacet
  facet normal 0.0 0.0 1.0
    outer loop
      vertex 0.5 8.5 3.5
      vertex 1.5 8.5 3.5
      vertex 1.5 9.5 3.5
    endloop
  endfacet
  facet normal 0.0 0.0 1.0
    outer loop
      vertex 0.5 8.5 3.5
      vertex 1.5 9.5 3.5
      vertex 0.5 9.5 3.5
    endloop
  endfacet
  facet normal 0.0 0.0 1.0
    outer loop
      vertex 1.5 8.5 3.5
      vertex 2.5 8.5 3.5
      vertex 2.5 9.5 3.5
    endloop
  endfacet
  facet normal 0.0 0.0 1.0
    outer loop
      vertex 1.5 8.5 3.5
      vertex 2.5 9.5 3.5
      vertex 1.5 9.5 3.5
    endloop
  endfacet
  facet normal 0.0 0.0 1.0
    outer loop
      vertex -0.5 3.5 1.5
      vertex 0.5 3.5 1.5
      vertex 0.5 4.5 1.5
    endloop
  endfacet
  facet normal 0.0 0.0 1.0
    outer loop
      vertex -0.5 3.5 1.5
      vertex 0.5 4.5 1.5
      vertex -0.5 4.5 1.5
    endloop
  endfacet
  facet normal 0.0 0.0 1.0
    outer loop
      vertex -0.5 5.5 1.5
      vertex 0.5 5.5 1.5
      vertex 0.5 6.5 1.5
    endloop
  endfacet
  facet normal 0.0 0.0 1.0
    outer loop
      vertex -0.5 5.5 1.5
      vertex 0.5 6.5 1.5
      vertex -0.5 6.5 1.5
    endloop
  endfacet
  facet normal 0.0 0.0 1.0
    outer loop
      vertex 0.5 3.5 1.5
      vertex 1.5 3.5 1.5
      vertex 1.5 4.5 1.5
    endloop
  endfacet
  facet normal 0.0 0.0 1.0
    outer loop
      vertex 0.5 3.5 1.5
      vertex 1.5 4.5 1.5
      vertex 0.5 4.5 1.5
    endloop
  endfacet
  facet normal 0.0 0.0 1.0
    outer loop
      vertex 0.5 5.5 1.5
      vertex 1.5 5.5 1.5
      vertex 1.5 6.5 1.5
    endloop
  endfacet
  facet normal 0.0 0.0 1.0
    outer loop
      vertex 0.5 5.5 1.5
      vertex 1.5 6.5 1.5
      vertex 0.5 6.5 1.5
    endloop
  endfacet
  facet normal 0.0 0.0 1.0
    outer loop
      vertex 1.5 3.5 1.5
      vertex 2.5 3.5 1.5
      vertex 2.5 4.5 1.5
    endloop
  endfacet
  facet normal 0.0 0.0 1.0
    outer loop
      vertex 1.5 3.5 1.5
      vertex 2.5 4.5 1.5
      vertex 1.5 4.5 1.5
    endloop
  endfacet
  facet normal 0.0 0.0 1.0
    outer loop
      vertex 1.5 5.5 1.5
      vertex 2.5 5.5 1.5
      vertex 2.5 6.5 1.5
    endloop
  endfacet
  facet normal 0.0 0.0 1.0
    outer loop
      vertex 1.5 5.5 1.5
      vertex 2.5 6.5 1.5
      vertex 1.5 6.5 1.5
    endloop
  endfacet
  facet normal 0.0 -1.0 0.0
    outer loop
      vertex -0.5 4.5 1.5
      vertex 0.5 4.5 1.5
      vertex 0.5 4.5 2.5
    endloop
  endfacet
  facet normal 0.0 -1.0 0.0
    outer loop
      vertex -0.5 4.5 1.5
      vertex 0.5 4.5 2.5
      vertex -0.5 4.5 2.5
    endloop
  endfacet
  facet normal 0.0 -1.0 0.0
    outer loop
      vertex -0.5 4.5 2.5
      vertex 0.5 4.5 2.5
      vertex 0.5 4.5 3.5
    endloop
  endfacet
  facet normal 0.0 -1.0 0.0
    outer loop
      vertex -0.5 4.5 2.5
      vertex 0.5 4.5 3.5
      vertex -0.5 4.5 3.5
    endloop
  endfacet
  facet normal 0.0 -1.0 0.0
    outer loop
      vertex 0.5 4.5 1.5
      vertex 1.5 4.5 1.5
      vertex 1.5 4.5 2.5
    endloop
  endfacet
  facet normal 0.0 -1.0 0.0
    outer loop
      vertex 0.5 4.5 1.5
      vertex 1.5 4.5 2.5
      vertex 0.5 4.5 2.5
    endloop
  endfacet
  facet normal 0.0 -1.0 0.0
    outer loop
      vertex 0.5 4.5 2.5
      vertex 1.5 4.5 2.5
      vertex 1.5 4.5 3.5
    endloop
  endfacet
  facet normal 0.0 -1.0 0.0
    outer loop
      vertex 0.5 4.5 2.5
      vertex 1.5 4.5 3.5
      vertex 0.5 4.5 3.5
    endloop
  endfacet
  facet normal 0.0 -1.0 0.0
    outer loop
      vertex 1.5 4.5 1.5
      vertex 2.5 4.5 1.5
      vertex 2.5 4.5 2.5
    endloop
  endfacet
  facet normal 0.0 -1.0 0.0
    outer loop
      vertex 1.5 4.5 1.5
      vertex 2.5 4.5 2.5
      vertex 1.5 4.5 2.5
    endloop
  endfacet
  facet normal 0.0 -1.0 0.0
    outer loop
      vertex 1.5 4.5 2.5
      vertex 2.5 4.5 2.5
      vertex 2.5 4.5 3.5
    endloop
  endfacet
  facet normal 0.0 -1.0 0.0
    outer loop
      vertex 1.5 4.5 2.5
      vertex 2.5 4.5 3.5
      vertex 1.5 4.5 3.5
    endloop
  endfacet
  facet normal 0.0 1.0 0.0
    outer loop
      vertex -0.5 5.5 1.5
      vertex -0.5 5.5 2.5
      vertex 0.5 5.5 2.5
    endloop
  endfacet
  facet normal 0.0 1.0 0.0
    outer loop
      vertex -0.5 5.5 1.5
      vertex 0.5 5.5 2.5
      vertex 0.5 5.5 1.5
    endloop
  endfacet
  facet normal 0.0 1.0 0.0
    outer loop
      vertex -0.5 5.5 2.5
      vertex -0.5 5.5 3.5
      vertex 0.5 5.5 3.5
    endloop
  endfacet
  facet normal 0.0 1.0 0.0
    outer loop
      vertex -0.5 5.5 2.5
      vertex 0.5 5.5 3.5
      vertex 0.5 5.5 2.5
    endloop
  endfacet
  facet normal 0.0 1.0 0.0
    outer loop
      vertex 0.5 5.5 1.5
      vertex 0.5 5.5 2.5
      vertex 1.5 5.5 2.5
    endloop
  endfacet
  facet normal 0.0 1.0 0.0
    outer loop
      vertex 0.5 5.5 1.5
      vertex 1.5 5.5 2.5
      vertex 1.5 5.5 1.5
    endloop
  endfacet
  facet normal 0.0 1.0 0.0
    outer loop
      vertex 0.5 5.5 2.5
      vertex 0.5 5.5 3.5
      vertex 1.5 5.5 3.5
    endloop
  endfacet
  facet normal 0.0 1.0 0.0
    outer loop
      vertex 0.5 5.5 2.5
      vertex 1.5 5.5 3.5
      vertex 1.5 5.5 2.5
    endloop
  endfacet
  facet normal 0.0 1.0 0.0
    outer loop
      vertex 1.5 5.5 1.5
      vertex 1.5 5.5 2.5
      vertex 2.5 5.5 2.5
    endloop
  endfacet
  facet normal 0.0 1.0 0.0
    outer loop
      vertex 1.5 5.5 1.5
      vertex 2.5 5.5 2.5
      vertex 2.5 5.5 1.5
    endloop
  endfacet
  facet normal 0.0 1.0 0.0
    outer loop
      vertex 1.5 5.5 2.5
      vertex 1.5 5.5 3.5
      vertex 2.5 5.5 3.5
    endloop
  endfacet
  facet normal 0.0 1.0 0.0
    outer loop
      vertex 1.5 5.5 2.5
      vertex 2.5 5.5 3.5
      vertex 2.5 5.5 2.5
    endloop
  endfacet
  facet normal 0.0 0.0 1.0
    outer loop
      vertex -0.5 4.5 3.5
      vertex 0.5 4.5 3.5
      vertex 0.5 5.5 3.5
    endloop
  endfacet
  facet normal 0.0 0.0 1.0
    outer loop
      vertex -0.5 4.5 3.5
      vertex 0.5 5.5 3.5
      vertex -0.5 5.5 3.5
    endloop
  endfacet
  facet normal 0.0 0.0 1.0
    outer loop
      vertex 0.5 4.5 3.5
      vertex 1.5 4.5 3.5
      vertex 1.5 5.5 3.5
    endloop
  endfacet
  facet normal 0.0 0.0 1.0
    outer loop
      vertex 0.5 4.5 3.5
      vertex 1.5 5.5 3.5
      vertex 0.5 5.5 3.5
    endloop
  endfacet
  facet normal 0.0 0.0 1.0
    outer loop
      vertex 1.5 4.5 3.5
      vertex 2.5 4.5 3.5
      vertex 2.5 5.5 3.5
    endloop
  endfacet
  facet normal 0.0 0.0 1.0
    outer loop
      vertex 1.5 4.5 3.5
      vertex 2.5 5.5 3.5
      vertex 1.5 5.5 3.5
    endloop
  endfacet
  facet normal 0.0 0.0 1.0
    outer loop
      vertex -0.5 -0.5 1.5
      vertex 0.5 -0.5 1.5
      vertex 0.5 0.5 1.5
    endloop
  endfacet
  facet normal 0.0 0.0 1.0
    outer loop
      vertex -0.5 -0.5 1.5
      vertex 0.5 0.5 1.5
      vertex -0.5 0.5 1.5
    endloop
  endfacet
  facet normal 0.0 0.0 1.0
    outer loop
      vertex -0.5 1.5 1.5
      vertex 0.5 1.5 1.5
      vertex 0.5 2.5 1.5
    endloop
  endfacet
  facet normal 0.0 0.0 1.0
    outer loop
      vertex -0.5 1.5 1.5
      vertex 0.5 2.5 1.5
      vertex -0.5 2.5 1.5
    endloop
  endfacet
  facet normal 0.0 0.0 1.0
    outer loop
      vertex 0.5 -0.5 1.5
      vertex 1.5 -0.5 1.5
      vertex 1.5 0.5 1.5
    endloop
  endfacet
  facet normal 0.0 0.0 1.0
    outer loop
      vertex 0.5 -0.5 1.5
      vertex 1.5 0.5 1.5
      vertex 0.5 0.5 1.5
    endloop
  endfacet
  facet normal 0.0 0.0 1.0
    outer loop
      vertex 0.5 1.5 1.5
      vertex 1.5 1.5 1.5
      vertex 1.5 2.5 1.5
    endloop
  endfacet
  facet normal 0.0 0.0 1.0
    outer loop
      vertex 0.5 1.5 1.5
      vertex 1.5 2.5 1.5
      vertex 0.5 2.5 1.5
    endloop
  endfacet
  facet normal 0.0 0.0 1.0
    outer loop
      vertex 1.5 -0.5 1.5
      vertex 2.5 -0.5 1.5
      vertex 2.5 0.5 1.5
    endloop
  endfacet
  facet normal 0.0 0.0 1.0
    outer loop
      vertex 1.5 -0.5 1.5
      vertex 2.5 0.5 1.5
      vertex 1.5 0.5 1.5
    endloop
  endfacet
  facet normal 0.0 0.0 1.0
    outer loop
      vertex 1.5 1.5 1.5
      vertex 2.5 1.5 1.5
      vertex 2.5 2.5 1.5
    endloop
  endfacet
  facet normal 0.0 0.0 1.0
    outer loop
      vertex 1.5 1.5 1.5
      vertex 2.5 2.5 1.5
      vertex 1.5 2.5 1.5
    endloop
  endfacet
  facet normal 0.0 -1.0 0.0
    outer loop
      vertex -0.5 0.5 1.5
      vertex 0.5 0.5 1.5
      vertex 0.5 0.5 2.5
    endloop
  endfacet
  facet normal 0.0 -1.0 0.0
    outer loop
      vertex -0.5 0.5 1.5
      vertex 0.5 0.5 2.5
      vertex -0.5 0.5 2.5
    endloop
  endfacet
  facet normal 0.0 -1.0 0.0
    outer loop
      vertex -0.5 0.5 2.5
      vertex 0.5 0.5 2.5
      vertex 0.5 0.5 3.5
    endloop
  endfacet
  facet normal 0.0 -1.0 0.0
    outer loop
      vertex -0.5 0.5 2.5
      vertex 0.5 0.5 3.5
      vertex -0.5 0.5 3.5
    endloop
  endfacet
  facet normal 0.0 -1.0 0.0
    outer loop
      vertex 0.5 0.5 1.5
      vertex 1.5 0.5 1.5
      vertex 1.5 0.5 2.5
    endloop
  endfacet
  facet normal 0.0 -1.0 0.0
    outer loop
      vertex 0.5 0.5 1.5
      vertex 1.5 0.5 2.5
      vertex 0.5 0.5 2.5
    endloop
  endfacet
  facet normal 0.0 -1.0 0.0
    outer loop
      vertex 0.5 0.5 2.5
      vertex 1.5 0.5 2.5
      vertex 1.5 0.5 3.5
    endloop
  endfacet
  facet normal 0.0 -1.0 0.0
    outer loop
      vertex 0.5 0.5 2.5
      vertex 1.5 0.5 3.5
      vertex 0.5 0.5 3.5
    endloop
  endfacet
  facet normal 0.0 -1.0 0.0
    outer loop
      vertex 1.5 0.5 1.5
      vertex 2.5 0.5 1.5
      vertex 2.5 0.5 2.5
    endloop
  endfacet
  facet normal 0.0 -1.0 0.0
    outer loop
      vertex 1.5 0.5 1.5
      vertex 2.5 0.5 2.5
      vertex 1.5 0.5 2.5
    endloop
  endfacet
  facet normal 0.0 -1.0 0.0
    outer loop
      vertex 1.5 0.5 2.5
      vertex 2.5 0.5 2.5
      vertex 2.5 0.5 3.5
    endloop
  endfacet
  facet normal 0.0 -1.0 0.0
    outer loop
      vertex 1.5 0.5 2.5
      vertex 2.5 0.5 3.5
      vertex 1.5 0.5 3.5
    endloop
  endfacet
  facet normal 0.0 1.0 0.0
    outer loop
      vertex -0.5 1.5 1.5
      vertex -0.5 1.5 2.5
      vertex 0.5 1.5 2.5
    endloop
  endfacet
  facet normal 0.0 1.0 0.0
    outer loop
      vertex -0.5 1.5 1.5
      vertex 0.5 1.5 2.5
      vertex 0.5 1.5 1.5
    endloop
  endfacet
  facet normal 0.0 1.0 0.0
    outer loop
      vertex -0.5 1.5 2.5
      vertex -0.5 1.5 3.5
      vertex 0.5 1.5 3.5
    endloop
  endfacet
  facet normal 0.0 1.0 0.0
    outer loop
      vertex -0.5 1.5 2.5
      vertex 0.5 1.5 3.5
      vertex 0.5 1.5 2.5
    endloop
  endfacet
  facet normal 0.0 1.0 0.0
    outer loop
      vertex 0.5 1.5 1.5
      vertex 0.5 1.5 2.5
      vertex 1.5 1.5 2.5
    endloop
  endfacet
  facet normal 0.0 1.0 0.0
    outer loop
      vertex 0.5 1.5 1.5
      vertex 1.5 1.5 2.5
      vertex 1.5 1.5 1.5
    endloop
  endfacet
  facet normal 0.0 1.0 0.0
    outer loop
      vertex 0.5 1.5 2.5
      vertex 0.5 1.5 3.5
      vertex 1.5 1.5 3.5
    endloop
  endfacet
  facet normal 0.0 1.0 0.0
    outer loop
      vertex 0.5 1.5 2.5
      vertex 1.5 1.5 3.5
      vertex 1.5 1.5 2.5
    endloop
  endfacet
  facet normal 0.0 1.0 0.0
    outer loop
      vertex 1.5 1.5 1.5
      vertex 1.5 1.5 2.5
      vertex 2.5 1.5 2.5
    endloop
  endfacet
  facet normal 0.0 1.0 0.0
    outer loop
      vertex 1.5 1.5 1.5
      vertex 2.5 1.5 2.5
      vertex 2.5 1.5 1.5
    endloop
  endfacet
  facet normal 0.0 1.0 0.0
    outer loop
      vertex 1.5 1.5 2.5
      vertex 1.5 1.5 3.5
      vertex 2.5 1.5 3.5
    endloop
  endfacet
  facet normal 0.0 1.0 0.0
    outer loop
      vertex 1.5 1.5 2.5
      vertex 2.5 1.5 3.5
      vertex 2.5 1.5 2.5
    endloop
  endfacet
  facet normal 0.0 0.0 1.0
    outer loop
      vertex -0.5 0.5 3.5
      vertex 0.5 0.5 3.5
      vertex 0.5 1.5 3.5
    endloop
  endfacet
  facet normal 0.0 0.0 1.0
    outer loop
      vertex -0.5 0.5 3.5
      vertex 0.5 1.5 3.5
      vertex -0.5 1.5 3.5
    endloop
  endfacet
  facet normal 0.0 0.0 1.0
    outer loop
      vertex 0.5 0.5 3.5
      vertex 1.5 0.5 3.5
      vertex 1.5 1.5 3.5
    endloop
  endfacet
  facet normal 0.0 0.0 1.0
    outer loop
      vertex 0.5 0.5 3.5
      vertex 1.5 1.5 3.5
      vertex 0.5 1.5 3.5
    endloop
  endfacet
  facet normal 0.0 0.0 1.0
    outer loop
      vertex 1.5 0.5 3.5
      vertex 2.5 0.5 3.5
      vertex 2.5 1.5 3.5
    endloop
  endfacet
  facet normal 0.0 0.0 1.0
    outer loop
      vertex 1.5 0.5 3.5
      vertex 2.5 1.5 3.5
      vertex 1.5 1.5 3.5
    endloop
  endfacet
endsolid v3d.csg
